<svg width="299" height="299" xmlns="http://www.w3.org/2000/svg" version="1.1">

 <g>
  <title>Layer 1</title>
  <path id="svg_1" fill="#F66D01" d="m0,0c98.67,0 197.34,0 299,0c0,98.67 0,197.34 0,299c-98.67,0 -197.34,0 -299,0c0,-98.67 0,-197.34 0,-299z"/>
  <path id="svg_3" fill="#FEFCFA" d="m106.29053,55.70947c1.01069,-0.00672 2.02138,-0.01343 3.0627,-0.02036c3.32762,-0.01893 6.65504,-0.0229 9.98271,-0.02505c2.32256,-0.00643 4.64512,-0.01316 6.96768,-0.02017c4.86366,-0.01196 9.72724,-0.01568 14.59091,-0.0145c6.21955,0.00021 12.43864,-0.02711 18.65808,-0.06154c4.79567,-0.02228 9.59124,-0.0263 14.38696,-0.02524c2.29243,-0.00235 4.58487,-0.01116 6.87725,-0.02666c3.21161,-0.01969 6.42224,-0.01382 9.63387,-0.00179c0.93847,-0.01124 1.87694,-0.02248 2.84385,-0.03406c8.76956,0.08306 15.9504,3.2272 22.84609,8.60583c6.31018,6.49578 9.01767,14.49151 8.9729,23.323c0.00014,0.75147 0.00029,1.50293 0.00044,2.27716c-0.0007,2.48357 -0.00848,4.96707 -0.01631,7.45063c-0.00187,1.72207 -0.00329,3.44414 -0.00429,5.16621c-0.00382,4.53246 -0.01364,9.06489 -0.0247,13.59734c-0.01023,4.62503 -0.0148,9.25007 -0.01984,13.87512c-0.01072,9.07488 -0.02779,18.14974 -0.04883,27.22461c-0.77086,-0.49371 -1.54172,-0.98742 -2.33593,-1.4961c-1.50434,-0.96099 -1.50434,-0.96099 -3.03907,-1.9414c-0.99773,-0.63809 -1.99547,-1.27617 -3.02343,-1.9336c-2.45987,-1.59789 -2.45987,-1.59789 -4.60157,-2.6289c-0.00547,-1.21697 -0.00547,-1.21697 -0.01104,-2.45851c-0.03795,-7.6652 -0.09488,-15.32992 -0.17286,-22.9948c-0.03942,-3.94014 -0.07164,-7.88006 -0.08709,-11.82037c-0.0152,-3.80635 -0.04971,-7.61209 -0.09732,-11.41817c-0.01477,-1.44832 -0.02273,-2.89672 -0.02357,-4.34511c0.09538,-10.66833 0.09538,-10.66833 -4.60812,-19.96304c-6.0477,-5.88856 -12.46135,-6.29736 -20.47436,-6.27466c-0.93573,-0.00511 -1.87146,-0.01022 -2.83554,-0.01549c-3.08296,-0.01386 -6.1657,-0.01294 -9.24869,-0.01063c-2.14942,-0.00389 -4.29884,-0.00823 -6.44826,-0.01299c-4.5014,-0.00745 -9.00273,-0.00718 -13.50413,-0.00191c-5.76122,0.0058 -11.52212,-0.01114 -17.28328,-0.03434c-4.43788,-0.01475 -8.87568,-0.01561 -13.31357,-0.01249c-2.12382,-0.00051 -4.24765,-0.00574 -6.37144,-0.01581c-2.97254,-0.01237 -5.94444,-0.00557 -8.91697,0.006c-0.87243,-0.00764 -1.74485,-0.01528 -2.64372,-0.02316c-6.14224,0.05273 -11.14029,0.92398 -15.92097,5.11423c-0.46665,0.58781 -0.93329,1.17562 -1.41407,1.78125c-0.48211,0.58781 -0.96422,1.17562 -1.46093,1.78125c-2.21315,3.26773 -2.2925,6.14417 -2.30451,9.96771c-0.00571,1.08785 -0.01142,2.1757 -0.0173,3.29651c-0.00112,1.19381 -0.00224,2.38762 -0.00339,3.61761c-0.00497,1.25716 -0.00993,2.51432 -0.01505,3.80957c-0.01311,3.4506 -0.01956,6.90117 -0.02401,10.35179c-0.00293,2.1571 -0.00703,4.31419 -0.0115,6.47128c-0.01367,6.75269 -0.02334,13.50537 -0.0272,20.25808c-0.00448,7.78794 -0.02202,15.57571 -0.051,23.36361c-0.02164,6.0239 -0.03171,12.04775 -0.03304,18.07169c-0.00105,3.59574 -0.00692,7.19132 -0.02482,10.78701c-0.0196,4.01452 -0.01518,8.02867 -0.00869,12.04322c-0.01382,1.77858 -0.01382,1.77858 -0.02793,3.59308c0.03545,6.9965 0.30703,12.57661 5.10312,18.04852c0.88172,0.69997 0.88172,0.69997 1.78125,1.41407c0.88172,0.72316 0.88172,0.72316 1.78125,1.46093c2.88326,1.95276 5.40981,2.29051 8.79084,2.30451c0.827,0.00571 1.65401,0.01142 2.50608,0.0173c0.90394,0.00112 1.80788,0.00224 2.73922,0.00339c0.95479,0.00497 1.90959,0.00993 2.89332,0.01505c3.16415,0.01462 6.32824,0.02142 9.49242,0.02694c2.19855,0.00575 4.39709,0.01151 6.59564,0.01728c4.61347,0.01051 9.22692,0.01635 13.84039,0.01983c5.90589,0.00548 11.81155,0.0295 17.71737,0.05797c4.54338,0.01865 9.08671,0.02384 13.63013,0.02537c2.17686,0.00302 4.35371,0.01104 6.53053,0.02418c3.04946,0.0171 6.09836,0.01517 9.14785,0.00869c0.89584,0.00922 1.79169,0.01843 2.71468,0.02793c5.49971,-0.03654 9.20031,-0.91828 14.12028,-3.38437c0.99,-0.33 1.98,-0.66 3,-1c1.03613,1.40552 2.05345,2.82491 3.0625,4.25c0.85272,1.18336 0.85272,1.18336 1.72266,2.39062c1.21484,2.35938 1.21484,2.35938 1.12891,4.52344c-1.17683,2.36371 -2.21433,2.87872 -4.60157,3.96094c-0.66386,0.31195 -1.32773,0.6239 -2.01172,0.94531c-0.75925,0.3068 -1.51851,0.61359 -2.30078,0.92969c-1.25651,0.51477 -1.25651,0.51477 -2.5384,1.03994c-4.45395,1.23528 -8.54788,1.25524 -13.14788,1.25058c-0.95856,0.00672 -1.91712,0.01344 -2.90474,0.02036c-3.16112,0.01896 -6.32202,0.0229 -9.4832,0.02505c-2.20709,0.00644 -4.41419,0.01316 -6.62129,0.02018c-4.62585,0.01197 -9.25162,0.01568 -13.87749,0.01449c-5.90662,-0.0002 -11.81277,0.02707 -17.71928,0.06155c-4.55986,0.02232 -9.1196,0.02629 -13.6795,0.02523c-2.17634,0.00235 -4.35269,0.01114 -6.52899,0.02667c-27.27507,0.17637 -27.27507,0.17637 -37.49923,-9.48405c-8.19641,-9.01025 -9.44711,-17.49925 -9.40405,-29.34156c-0.00571,-1.33632 -0.01268,-2.67263 -0.0208,-4.00894c-0.01786,-3.60959 -0.01677,-7.21893 -0.01106,-10.82856c0.00311,-3.02173 -0.00301,-6.04341 -0.00903,-9.06513c-0.01403,-7.13259 -0.01251,-14.26507 -0.0011,-21.39766c0.01148,-7.3403 -0.0026,-14.68024 -0.0294,-22.02049c-0.0222,-6.3196 -0.02878,-12.63908 -0.02292,-18.95871c0.00336,-3.76678 0.00102,-7.53332 -0.01625,-11.30006c-0.01554,-3.54361 -0.01144,-7.08668 0.0073,-10.63027c0.00541,-1.90785 -0.00877,-3.81572 -0.02369,-5.72351c0.08395,-9.8476 2.63681,-18.42948 9.531,-25.72511c8.31586,-6.79677 15.8153,-8.3006 26.29053,-8.29053z"/>
  <path id="svg_4" fill="#FEFAF6" d="m212.39844,153.55078c9.16542,5.10566 15.17889,12.43095 18.20703,22.45313c1.95566,9.89446 -0.53347,18.87089 -5.72265,27.30859c-0.53996,0.88301 -1.07992,1.76601 -1.63624,2.67578c-0.41137,0.66387 -0.82274,1.32773 -1.24658,2.01172c0.4241,0.62979 0.84821,1.25957 1.28516,1.90845c1.92172,2.87386 3.81832,5.7635 5.71484,8.65405c0.66774,0.99064 1.33547,1.98129 2.02344,3.00195c6.12529,9.4067 6.12529,9.4067 4.97656,15.43555c-2.0625,3 -2.0625,3 -5,5c-3.375,0.4375 -3.375,0.4375 -7,-1c-3.75752,-4.05325 -6.44854,-8.84312 -8.8789,-13.77734c-2.04583,-3.9385 -3.93897,-7.07624 -7.1211,-10.22266c-4.29292,-0.88319 -7.86896,-0.73195 -12.1914,-0.31641c-7.58055,0.62977 -13.55744,-2.53075 -19.66407,-6.80859c-6.0848,-5.32005 -10.94749,-12.71992 -11.55078,-20.87891c-0.37527,-10.9732 0.72344,-19.57662 8.30469,-28.14062c10.87596,-10.20965 25.55954,-13.16462 39.5,-7.30469z"/>
  <path id="svg_5" fill="#F66F03" d="m206.6875,162.5c5.92597,2.94197 10.90332,8.30174 13.3125,14.5c0.86356,7.59133 0.83518,14.79344 -4,21c-4.36,4.6183 -8.60109,7.62573 -15.05078,8.33594c-6.76501,0.08102 -12.54153,0.09861 -17.94922,-4.33594c-6.25619,-6.83003 -8.5848,-12.38184 -8.44922,-21.66406c0.86109,-6.39453 4.39907,-10.3883 8.94922,-14.71094c0.825,-0.53625 1.65,-1.0725 2.5,-1.625c0.88687,-0.5775 1.77375,-1.155 2.6875,-1.75c6.08573,-2.2965 11.93089,-2.08029 18,0.25z"/>
  <path id="svg_6" fill="#FEF9F4" d="m113.17749,95.48242c0.82161,-0.00701 1.64321,-0.01402 2.48972,-0.02124c2.71414,-0.0176 5.42723,-0.00595 8.14138,0.00757c1.88803,-0.0027 3.77606,-0.00658 5.66408,-0.0116c3.95692,-0.0059 7.91347,0.00268 11.87035,0.02136c5.06886,0.02278 10.13687,0.00968 15.2057,-0.01429c3.89912,-0.01446 7.79805,-0.00984 11.69718,0.00052c1.86868,0.00266 3.73739,-0.0006 5.60606,-0.00992c2.61421,-0.01018 5.22705,0.00535 7.84116,0.0276c1.15582,-0.01215 1.15582,-0.01215 2.335,-0.02454c3.66698,0.05775 5.81244,0.44368 8.95981,2.38697c2.01207,2.15515 2.01207,2.15515 2.51207,5.15515c-0.57114,3.42687 -0.96181,4.64127 -3.5,7c-2.87995,0.40224 -5.38104,0.54688 -8.26343,0.51758c-1.26386,0.01051 -1.26386,0.01051 -2.55325,0.02124c-2.78931,0.01762 -5.5776,0.00594 -8.36691,-0.00757c-1.9367,0.00269 -3.87339,0.00657 -5.81008,0.01159c-4.06124,0.00591 -8.12213,-0.00268 -12.18333,-0.02136c-5.20687,-0.02277 -10.4129,-0.00968 -15.61974,0.01429c-4.00031,0.01446 -8.00042,0.00986 -12.00073,-0.00051c-1.91976,-0.00267 -3.83953,0.00061 -5.75926,0.00992c-2.68396,0.01016 -5.36659,-0.00532 -8.05045,-0.0276c-0.79442,0.00809 -1.58884,0.01619 -2.40733,0.02453c-3.54204,-0.05449 -5.59318,-0.25183 -8.47879,-2.38696c-2.06108,-2.94812 -2.09383,-4.6324 -1.5067,-8.15515c3.27333,-4.64065 6.90012,-4.57289 12.17749,-4.51758z"/>
  <path id="svg_7" fill="#FEFDFC" d="m112.37109,126.61182c0.85393,-0.00526 1.70787,-0.01051 2.58768,-0.01593c2.82643,-0.01322 5.65229,-0.00446 8.47873,0.00568c1.9615,-0.00202 3.92301,-0.00494 5.88452,-0.0087c4.11246,-0.00443 8.22472,0.00201 12.33716,0.01602c5.27633,0.01709 10.55221,0.00725 15.82853,-0.01072c4.05085,-0.01083 8.1016,-0.00739 12.15245,0.00039c1.9457,0.002 3.89141,-0.00047 5.8371,-0.00744c2.71748,-0.00761 5.43422,0.00397 8.15164,0.0207c0.80737,-0.00607 1.61473,-0.01215 2.44657,-0.0184c5.39724,0.06168 5.39724,0.06168 7.92038,1.7121c1.73945,2.93531 1.4167,5.39408 1.00415,8.69448c-2.46423,2.77857 -4.03695,3.00374 -7.76369,3.38095c-1.54295,0.01781 -3.08613,0.01903 -4.62914,0.00724c-0.84432,0.00525 -1.68865,0.01051 -2.55856,0.01593c-2.78853,0.01319 -5.57649,0.00446 -8.36502,-0.00568c-1.93766,0.00202 -3.87532,0.00493 -5.81297,0.0087c-4.05941,0.00442 -8.11861,-0.00201 -12.178,-0.01602c-5.20793,-0.01711 -10.41539,-0.00725 -15.6233,0.01071c-4.00024,0.01083 -8.00037,0.0074 -12.00061,-0.00038c-1.92058,-0.002 -3.84117,0.00046 -5.76174,0.00744c-2.68145,0.0076 -5.36215,-0.00397 -8.04355,-0.0207c-1.19466,0.00911 -1.19466,0.00911 -2.41346,0.0184c-5.32339,-0.06166 -5.32339,-0.06166 -7.84299,-1.7121c-1.72116,-2.89629 -1.35666,-5.43078 -1.00697,-8.69449c2.49869,-4.23297 7.00893,-3.42099 11.37109,-3.38818z"/>
  <path id="svg_8" fill="#FEFDFC" d="m110.39917,156.65942c0.96626,-0.00066 0.96626,-0.00066 1.95204,-0.00133c2.12673,0.00209 4.25267,0.02542 6.37926,0.04894c1.47544,0.00559 2.95089,0.00986 4.42634,0.01286c3.88159,0.01145 7.76283,0.04092 11.64428,0.07411c3.96144,0.0307 7.92293,0.0444 11.88446,0.05951c7.77164,0.03217 15.543,0.08336 23.31445,0.14649c-1.14395,1.98025 -2.29021,3.95917 -3.4375,5.9375c-0.63809,1.10214 -1.27617,2.20429 -1.93359,3.33984c-1.62891,2.72266 -1.62891,2.72266 -2.62891,3.72266c-1.79418,0.10946 -3.59266,0.14909 -5.39014,0.16113c-1.72716,0.01441 -1.72716,0.01441 -3.48922,0.02911c-1.25411,0.00425 -2.50822,0.0085 -3.80033,0.01288c-1.27884,0.0057 -2.55768,0.0114 -3.87527,0.01727c-2.71199,0.01052 -5.42395,0.01636 -8.13596,0.01984c-3.47608,0.00548 -6.95176,0.0295 -10.42772,0.05797c-3.31201,0.0231 -6.62396,0.02508 -9.93605,0.02992c-1.25006,0.01235 -2.50011,0.02469 -3.78805,0.03742c-1.15775,-0.00301 -2.3155,-0.00601 -3.50833,-0.0091c-1.53103,0.00547 -1.53103,0.00547 -3.09299,0.01105c-2.55594,-0.36749 -2.55594,-0.36749 -4.38556,-1.67102c-1.96294,-2.84529 -1.52731,-5.36509 -1.17038,-8.69647c2.44898,-3.70014 5.20728,-3.36453 9.39917,-3.34058z"/>
  <path id="svg_9" fill="#FEF8F3" d="m112.46875,186.56641c0.71732,-0.00524 1.43465,-0.01048 2.17371,-0.01588c1.51288,-0.00641 3.02582,-0.0051 4.53869,0.00343c2.31162,0.00852 4.62076,-0.02028 6.93213,-0.052c1.47266,-0.00162 2.94532,-0.00104 4.41797,0.00195c0.68864,-0.01123 1.37728,-0.02247 2.08679,-0.03404c3.3524,0.04857 5.11117,0.32484 7.8136,2.37364c1.56836,2.15649 1.56836,2.15649 2.13086,5.15649c-0.5625,3 -0.5625,3 -2.63843,5.1543c-3.66342,2.31239 -5.95898,2.36186 -10.27173,2.37695c-0.69371,0.00383 -1.38742,0.00766 -2.10215,0.0116c-1.45986,0.00271 -2.91977,-0.00459 -4.37954,-0.02136c-2.23051,-0.02146 -4.45781,-0.00016 -6.68823,0.02539c-1.42253,-0.00264 -2.84506,-0.00777 -4.26758,-0.01563c-1.28785,-0.00451 -2.5757,-0.00902 -3.90258,-0.01367c-3.31226,-0.51758 -3.31226,-0.51758 -5.73194,-2.32812c-2.2997,-3.18612 -2.13643,-5.36618 -1.58032,-9.18946c3.29038,-3.54968 6.91036,-3.45302 11.46875,-3.43359z"/>
  <path id="svg_10" fill="#FDF3EA" d="m202,167c4.87774,0.45374 7.52178,1.52178 11,5c3.78668,5.35359 3.30209,10.71208 3,17c-1.9375,0.5625 -1.9375,0.5625 -4,1c-1.61177,-1.61177 -1.19739,-3.52668 -1.3125,-5.75c-0.42529,-4.58658 -1.19049,-7.04441 -4.6875,-10.25c-2.61858,-1.78963 -2.61858,-1.78963 -5,-3c0.33,-1.32 0.66,-2.64 1,-4z"/>
  <path id="svg_11" fill="#FDEAD9" d="m85,60c0.66,0.33 1.32,0.66 2,1c-3.3,3.3 -6.6,6.6 -10,10c0,-3 0,-3 2.3125,-5.5c0.88687,-0.825 1.77375,-1.65 2.6875,-2.5c0.59813,-0.59813 1.19625,-1.19625 1.8125,-1.8125c0.39187,-0.39187 0.78375,-0.78375 1.1875,-1.1875z"/>
 </g>
</svg>
