<svg xmlns="http://www.w3.org/2000/svg" version="1.1" width="512" height="512">
<path d="M0 0 C1.26092468 -0.01007584 2.52184937 -0.02015167 3.82098389 -0.03053284 C7.26964831 -0.05695789 10.71808919 -0.06406328 14.16684508 -0.0659802 C16.32618684 -0.06811791 18.48547243 -0.07453268 20.64480019 -0.08247185 C28.19178475 -0.11020551 35.7386107 -0.12248049 43.28564453 -0.12011719 C50.29769246 -0.11831765 57.30904591 -0.14992303 64.32091826 -0.19734818 C70.35856131 -0.2367146 76.39597878 -0.25266297 82.43374902 -0.25075096 C86.03198552 -0.24998977 89.62960506 -0.25833042 93.22771263 -0.29028511 C97.24863639 -0.32502094 101.26802888 -0.31100465 105.2890625 -0.29296875 C106.46503494 -0.30982727 107.64100739 -0.32668579 108.85261536 -0.34405518 C118.01082883 -0.24011219 125.39359144 2.31616522 131.93286133 8.92797852 C132.41883789 9.71430664 132.90481445 10.50063477 133.40551758 11.31079102 C134.21762695 12.59663086 134.21762695 12.59663086 135.04614258 13.90844727 C136.6684143 16.79199068 138.15611858 19.7163379 139.59692383 22.69360352 C142.87108781 29.24193148 147.93232619 31.71258627 154.46801758 34.43579102 C158.7613733 35.68872115 162.992399 35.57615002 167.43034363 35.5670929 C168.34621052 35.56920861 169.2620774 35.57132432 170.20569783 35.57350415 C173.28167509 35.57950654 176.35761134 35.57850382 179.43359375 35.57763672 C181.63630239 35.58066808 183.8390104 35.58418947 186.04171753 35.58816528 C190.78945676 35.59605684 195.53718847 35.60120019 200.28493309 35.60445595 C207.79425228 35.61036421 215.30352403 35.62690315 222.81282043 35.64579773 C225.38342187 35.65213522 227.95402333 35.65846084 230.52462482 35.66477489 C231.81205511 35.66794071 233.09948539 35.67110652 234.42592871 35.67436826 C241.08587055 35.69039685 247.74581469 35.70507286 254.40576172 35.71875 C255.07402724 35.72012587 255.74229277 35.72150174 256.43080876 35.72291931 C267.25267073 35.74483481 278.07452101 35.75560222 288.89640125 35.76312075 C300.01481235 35.77120113 311.13313162 35.79478519 322.25148755 35.83107442 C328.49091423 35.85083633 334.7301655 35.86323914 340.96962547 35.85824013 C346.84084916 35.8535935 352.71174049 35.86740045 358.58289719 35.89525223 C360.73509823 35.90216378 362.88733365 35.90229099 365.03953362 35.89505196 C367.98367405 35.88615108 370.9267214 35.90187796 373.87077332 35.92353821 C374.71729263 35.91509567 375.56381194 35.90665313 376.43598336 35.89795476 C384.73985136 36.01048781 391.99809198 39.25985054 398.46801758 44.43579102 C406.93859839 53.73682093 407.91308928 62.56549084 407.86242676 74.74523926 C407.86731996 76.20250146 407.87351175 77.65975978 407.88088465 79.11701155 C407.89725248 83.10830608 407.89497274 87.09940267 407.88950968 91.09071898 C407.88683564 95.4002713 407.90137813 99.70977131 407.91360474 104.01930237 C407.93464373 112.45648796 407.93920052 120.8936048 407.93741685 129.33081353 C407.93610868 136.18840057 407.93991614 143.04596618 407.94734192 149.90354919 C407.94944113 151.87962262 407.95153873 153.85569604 407.95363474 155.83176947 C407.95520003 157.30711693 407.95520003 157.30711693 407.95679694 158.81226939 C407.97569245 177.40709354 407.97465096 196.00187823 407.96782762 214.596708 C407.96225017 231.60752114 407.98308743 248.61818378 408.01618809 265.62896174 C408.04991894 283.09925833 408.06509434 300.5694828 408.06047106 318.03981256 C408.05822608 327.84670134 408.063474 337.65345093 408.08836365 347.46031189 C408.1093687 355.80755079 408.11297646 364.15457415 408.09406406 372.50182188 C408.08490207 376.76012326 408.08377726 381.01802266 408.10441971 385.2762928 C408.12311546 389.17610329 408.11864267 393.07518217 408.09587389 396.97496468 C408.09168459 398.38401171 408.09589943 399.79311469 408.10946983 401.2021026 C408.19651624 410.9021993 407.00129963 416.59015992 400.37036133 423.67797852 C399.72196289 424.21680664 399.07356445 424.75563477 398.40551758 425.31079102 C397.75454102 425.86508789 397.10356445 426.41938477 396.43286133 426.99047852 C392.17985527 430.11893227 389.19747173 430.68673398 383.88175011 430.69305992 C383.21828821 430.696566 382.55482631 430.70007207 381.87125951 430.70368439 C379.63824179 430.71302102 377.40548357 430.70806931 375.17245483 430.70321655 C373.55920563 430.7069517 371.94595823 430.71155268 370.33271372 430.7169472 C365.89161966 430.72920982 361.45060073 430.72891289 357.00949359 430.72655845 C352.22267664 430.72615109 347.43588404 430.73718178 342.64907837 430.74667358 C333.26686199 430.76330344 323.88467074 430.76878406 314.50244085 430.76989834 C306.87580598 430.77084806 299.2491794 430.77495458 291.62254715 430.78129959 C270.00452102 430.79891897 248.38651478 430.80813761 226.76848142 430.80663864 C225.01946129 430.80651877 225.01946129 430.80651877 223.23510742 430.80639648 C221.4839536 430.80627384 221.4839536 430.80627384 219.69742294 430.80614872 C200.78334224 430.80533607 181.86934122 430.82446671 162.95528357 430.85267322 C143.53922989 430.8814 124.12321508 430.89521356 104.70713961 430.89348567 C93.80467849 430.8928216 82.90230085 430.89832105 71.99985886 430.91984177 C62.71534231 430.93805104 53.43094707 430.94240311 44.1464204 430.92882292 C39.40999559 430.92229145 34.67380351 430.92218248 29.93740082 430.93952942 C25.59826972 430.95525768 21.25955593 430.95239903 16.92043503 430.93496116 C15.35376337 430.93189067 13.78706059 430.93552553 12.22042565 430.94668131 C3.55499874 431.0042814 -3.71740869 430.48876584 -11.53198242 426.43579102 C-12.19335854 426.12479757 -12.85473466 425.81380412 -13.53615248 425.49338663 C-21.8974613 421.48195895 -28.3073275 412.19579927 -31.5807395 403.72038138 C-32.585167 400.25214756 -32.78695217 397.43207001 -32.79483795 393.8276577 C-32.79894322 393.18612454 -32.80304849 392.54459138 -32.80727816 391.88361782 C-32.81857327 389.73722438 -32.81570938 387.59108944 -32.81286621 385.44467163 C-32.81803609 383.88886809 -32.82406313 382.33306719 -32.83087301 380.77726996 C-32.84698946 376.50418507 -32.85059083 372.23116742 -32.85206795 367.95805573 C-32.85577319 363.34846337 -32.87086997 358.73890574 -32.88433838 354.1293335 C-32.91148948 344.05069693 -32.92355207 333.9720763 -32.9323597 323.89340925 C-32.93788727 317.59859982 -32.94636248 311.30379653 -32.95536804 305.00899124 C-32.97975152 287.57583438 -33.00035041 270.14268244 -33.00711823 252.7095089 C-33.00755736 251.59398131 -33.00799649 250.47845373 -33.00844893 249.32912228 C-33.00888548 248.21094605 -33.00932204 247.09276983 -33.00977182 245.94070947 C-33.01065875 243.67490983 -33.01155188 241.40911019 -33.01245117 239.14331055 C-33.01289403 238.0193989 -33.01333689 236.89548725 -33.01379317 235.73751767 C-33.02168772 217.52972687 -33.05659221 199.32209623 -33.10317022 181.11436729 C-33.15062008 162.41466781 -33.17552297 143.71504865 -33.17785406 125.015288 C-33.17968633 114.51850958 -33.1911595 104.02193984 -33.22749329 93.52521896 C-33.25832625 84.58625171 -33.26851819 75.64755762 -33.25201708 66.70854728 C-33.24421469 62.14996322 -33.24600949 57.59192899 -33.27413177 53.03341293 C-33.29967612 48.85444886 -33.29715932 44.67644586 -33.27295035 40.49748249 C-33.26904754 38.99139253 -33.27514211 37.48523372 -33.29263908 35.97924034 C-33.40780306 25.39055531 -31.87651236 16.2461761 -24.44891596 8.17115438 C-22.54584809 6.38629541 -20.70994326 4.87308503 -18.53198242 3.43579102 C-17.75662643 2.92085587 -16.98127045 2.40592072 -16.18241882 1.87538147 C-10.80964616 -0.24343157 -5.72705098 -0.00656462 0 0 Z " fill="#FEA414" transform="translate(68.531982421875,40.564208984375)"/>
<path d="M0 0 C1.26092468 -0.01007584 2.52184937 -0.02015167 3.82098389 -0.03053284 C7.26964831 -0.05695789 10.71808919 -0.06406328 14.16684508 -0.0659802 C16.32618684 -0.06811791 18.48547243 -0.07453268 20.64480019 -0.08247185 C28.19178475 -0.11020551 35.7386107 -0.12248049 43.28564453 -0.12011719 C50.29769246 -0.11831765 57.30904591 -0.14992303 64.32091826 -0.19734818 C70.35856131 -0.2367146 76.39597878 -0.25266297 82.43374902 -0.25075096 C86.03198552 -0.24998977 89.62960506 -0.25833042 93.22771263 -0.29028511 C97.24863639 -0.32502094 101.26802888 -0.31100465 105.2890625 -0.29296875 C106.46503494 -0.30982727 107.64100739 -0.32668579 108.85261536 -0.34405518 C118.01082883 -0.24011219 125.39359144 2.31616522 131.93286133 8.92797852 C132.41883789 9.71430664 132.90481445 10.50063477 133.40551758 11.31079102 C134.21762695 12.59663086 134.21762695 12.59663086 135.04614258 13.90844727 C136.6684143 16.79199068 138.15611858 19.7163379 139.59692383 22.69360352 C142.87108781 29.24193148 147.93232619 31.71258627 154.46801758 34.43579102 C158.7613733 35.68872115 162.992399 35.57615002 167.43034363 35.5670929 C168.34621052 35.56920861 169.2620774 35.57132432 170.20569783 35.57350415 C173.28167509 35.57950654 176.35761134 35.57850382 179.43359375 35.57763672 C181.63630239 35.58066808 183.8390104 35.58418947 186.04171753 35.58816528 C190.78945676 35.59605684 195.53718847 35.60120019 200.28493309 35.60445595 C207.79425228 35.61036421 215.30352403 35.62690315 222.81282043 35.64579773 C225.38342187 35.65213522 227.95402333 35.65846084 230.52462482 35.66477489 C231.81205511 35.66794071 233.09948539 35.67110652 234.42592871 35.67436826 C241.08587055 35.69039685 247.74581469 35.70507286 254.40576172 35.71875 C255.07402724 35.72012587 255.74229277 35.72150174 256.43080876 35.72291931 C267.25267073 35.74483481 278.07452101 35.75560222 288.89640125 35.76312075 C300.01481235 35.77120113 311.13313162 35.79478519 322.25148755 35.83107442 C328.49091423 35.85083633 334.7301655 35.86323914 340.96962547 35.85824013 C346.84084916 35.8535935 352.71174049 35.86740045 358.58289719 35.89525223 C360.73509823 35.90216378 362.88733365 35.90229099 365.03953362 35.89505196 C367.98367405 35.88615108 370.9267214 35.90187796 373.87077332 35.92353821 C374.71729263 35.91509567 375.56381194 35.90665313 376.43598336 35.89795476 C384.73985136 36.01048781 391.99809198 39.25985054 398.46801758 44.43579102 C405.49120438 52.14752554 407.93722694 59.81349654 407.80859375 70.06469727 C407.80903183 70.99245468 407.80946991 71.9202121 407.80992126 72.87608337 C407.80784524 75.91703963 407.78457032 78.95743207 407.76098633 81.99829102 C407.75538616 84.11677754 407.75111805 86.23526796 407.74812317 88.35375977 C407.7367076 93.91044982 407.70726871 99.466902 407.67401123 105.02349854 C407.64323938 110.70126122 407.62960265 116.3790626 407.61450195 122.05688477 C407.58239587 133.18329096 407.53123936 144.30952115 407.46801758 155.43579102 C406.80801758 155.43579102 406.14801758 155.43579102 405.46801758 155.43579102 C405.06583008 154.29303711 405.06583008 154.29303711 404.65551758 153.12719727 C401.81954122 145.65477272 398.02066999 137.21211722 390.46801758 133.43579102 C390.45383789 132.13125977 390.4396582 130.82672852 390.42504883 129.48266602 C390.12913957 116.27550235 388.91385776 105.09249008 379.35083008 95.11547852 C369.70727735 86.51230907 359.90756006 84.98865727 347.36184692 85.04811096 C345.92663465 85.04393435 344.49142568 85.03845504 343.0562228 85.03179115 C339.12578984 85.01736058 335.195567 85.02157375 331.26512265 85.02895796 C327.02097697 85.03369328 322.7768765 85.02117654 318.53274536 85.01094055 C310.22322151 84.99375415 301.91377327 84.99291224 293.60423626 84.99815346 C286.8491652 85.0021968 280.09411647 85.00074963 273.33904648 84.9954052 C272.37719192 84.99465678 271.41533735 84.99390835 270.42433568 84.99313725 C268.47024926 84.99160575 266.51616284 84.99006741 264.56207643 84.98852228 C246.24140188 84.97479773 227.92077003 84.98023454 209.60009645 84.9917075 C192.84608163 85.00163908 176.09217727 84.98870042 159.33817948 84.9647733 C142.12777757 84.94037991 124.9174271 84.93077508 107.70700824 84.93742603 C98.04763189 84.94091781 88.38834047 84.93868893 78.7289772 84.921175 C70.50588176 84.90645 62.28293105 84.90582146 54.05983843 84.92324591 C49.8661515 84.93175597 45.6727231 84.93390544 41.47904968 84.91859436 C37.63596487 84.90473725 33.79335983 84.90952321 29.95030271 84.9288336 C27.91012039 84.93436341 25.86991359 84.9203306 23.82977784 84.90547949 C12.02904927 84.99985361 3.00790091 88.14130663 -5.53198242 96.43579102 C-13.24244645 105.64457666 -15.02469762 114.97318998 -14.7956543 126.68188477 C-14.86682633 131.33428819 -14.92598171 132.83644966 -18.37573242 136.24829102 C-19.41729492 136.97016602 -20.45885742 137.69204102 -21.53198242 138.43579102 C-27.16597761 145.16221664 -30.14360697 152.8278632 -31.53198242 161.43579102 C-31.86198242 161.43579102 -32.19198242 161.43579102 -32.53198242 161.43579102 C-32.67247308 143.51978645 -32.77810969 125.6039259 -32.84285545 107.68748856 C-32.87372424 99.36756162 -32.91577 91.04797799 -32.98461914 82.72827148 C-33.04463633 75.47232309 -33.08318223 68.21662346 -33.09651339 60.96043372 C-33.10429978 57.12223729 -33.12245041 53.2847522 -33.16636276 49.44678497 C-33.20745862 45.82522295 -33.21957848 42.20465691 -33.21062851 38.58288383 C-33.21303503 36.63844382 -33.24512897 34.69410929 -33.27850342 32.74995422 C-33.2128198 23.30462622 -30.96099385 15.26391496 -24.44870567 8.16478348 C-22.54484855 6.38531653 -20.70741231 4.87141479 -18.53198242 3.43579102 C-17.75662643 2.92085587 -16.98127045 2.40592072 -16.18241882 1.87538147 C-10.80964616 -0.24343157 -5.72705098 -0.00656462 0 0 Z " fill="#E97800" transform="translate(68.531982421875,40.564208984375)"/>
<path d="M0 0 C1.59736604 0.00112986 3.19473416 0.00049191 4.792099 -0.00177002 C9.1056625 -0.00291269 13.41877662 0.02052366 17.73223615 0.04852581 C22.24854553 0.07361444 26.76486642 0.07588733 31.28123474 0.08062744 C39.82336515 0.09303536 48.36528959 0.12582727 56.9073295 0.1660254 C66.63646544 0.21081125 76.36561147 0.23274726 86.09482491 0.25280714 C106.09905726 0.29456194 126.10310449 0.36487134 146.10717773 0.45410156 C146.22330804 9.83384921 146.31201215 19.2133473 146.36623859 28.59365845 C146.39227195 32.94990533 146.42755409 37.30565838 146.484375 41.66162109 C146.53892029 45.86972875 146.56864532 50.07736308 146.58156395 54.28579712 C146.59076368 55.88692674 146.60872876 57.48803204 146.63582802 59.08895874 C146.8016862 69.29836375 146.20811553 76.0017025 139.00952148 83.69628906 C138.36112305 84.23511719 137.71272461 84.77394531 137.04467773 85.32910156 C136.39370117 85.88339844 135.74272461 86.43769531 135.07202148 87.00878906 C130.81901543 90.13724282 127.83663189 90.70504452 122.52091026 90.71137047 C121.85744837 90.71487654 121.19398647 90.71838262 120.51041967 90.72199494 C118.27740194 90.73133156 116.04464372 90.72637986 113.81161499 90.7215271 C112.19836578 90.72526225 110.58511839 90.72986322 108.97187388 90.73525774 C104.53077981 90.74752037 100.08976089 90.74722344 95.64865375 90.74486899 C90.86183679 90.74446164 86.07504419 90.75549233 81.28823853 90.76498413 C71.90602215 90.78161399 62.52383089 90.78709461 53.14160101 90.78820889 C45.51496613 90.78915861 37.88833956 90.79326513 30.26170731 90.79961014 C8.64368118 90.81722951 -12.97432507 90.82644815 -34.59235843 90.82494919 C-36.34137855 90.82482932 -36.34137855 90.82482932 -38.12573242 90.82470703 C-39.87688624 90.82458439 -39.87688624 90.82458439 -41.66341691 90.82445927 C-60.57749761 90.82364662 -79.49149862 90.84277726 -98.40555628 90.87098376 C-117.82160995 90.89971055 -137.23762477 90.91352411 -156.65370023 90.91179621 C-167.55616136 90.91113214 -178.45853899 90.9166316 -189.36098099 90.93815231 C-198.64549753 90.95636158 -207.92989277 90.96071366 -217.21441944 90.94713347 C-221.95084425 90.940602 -226.68703633 90.94049303 -231.42343903 90.95783997 C-235.76257013 90.97356823 -240.10128391 90.97070958 -244.44040482 90.9532717 C-246.00707647 90.95020121 -247.57377925 90.95383607 -249.14041419 90.96499185 C-257.8058411 91.02259195 -265.07824853 90.50707639 -272.89282227 86.45410156 C-273.88488645 85.98761139 -273.88488645 85.98761139 -274.89699233 85.51169717 C-283.53583371 81.36712027 -289.65414901 71.89087947 -293.20532227 63.26660156 C-293.87229309 60.53808457 -294.05725599 58.2494748 -293.89282227 55.45410156 C-291.21380294 57.77291661 -290.23077823 59.77224625 -289.20532227 63.14160156 C-288.95395508 63.94984375 -288.70258789 64.75808594 -288.44360352 65.59082031 C-288.2618457 66.20570313 -288.08008789 66.82058594 -287.89282227 67.45410156 C-287.23282227 66.13410156 -286.57282227 64.81410156 -285.89282227 63.45410156 C-285.89282227 64.44410156 -285.89282227 65.43410156 -285.89282227 66.45410156 C-284.90282227 66.45410156 -283.91282227 66.45410156 -282.89282227 66.45410156 C-282.89282227 67.11410156 -282.89282227 67.77410156 -282.89282227 68.45410156 C-282.23282227 68.45410156 -281.57282227 68.45410156 -280.89282227 68.45410156 C-280.02657227 69.59878906 -280.02657227 69.59878906 -279.14282227 70.76660156 C-276.62854769 73.76976286 -274.41746674 74.84502474 -270.89282227 76.45410156 C-270.23282227 77.11410156 -269.57282227 77.77410156 -268.89282227 78.45410156 C-257.78867578 82.54236014 -245.94441911 81.85893347 -234.31347656 81.79467773 C-232.15395113 81.7938302 -229.99442483 81.79430907 -227.8348999 81.79600525 C-222.00726631 81.79686168 -216.1798201 81.77929316 -210.35222983 81.75828338 C-204.24905598 81.73945759 -198.14587725 81.7377615 -192.04267883 81.73420715 C-180.50100686 81.72490398 -168.9594207 81.70031365 -157.41778642 81.67015868 C-144.27143519 81.63656079 -131.12507974 81.62011513 -117.97869623 81.60507238 C-90.9500241 81.57376252 -63.921428 81.52103575 -36.89282227 81.45410156 C-36.90392532 80.72462311 -36.91502838 79.99514465 -36.9264679 79.24356079 C-37.02713113 72.33023168 -37.10301966 65.41701373 -37.15188313 58.50313759 C-37.17785047 54.94952462 -37.2130071 51.39652296 -37.27001953 47.84326172 C-37.3353191 43.74734009 -37.35910856 39.65204895 -37.38110352 35.55566406 C-37.40690994 34.29485016 -37.43271637 33.03403625 -37.45930481 31.73501587 C-37.46237445 21.97723841 -35.26459454 14.85792245 -28.64282227 7.57910156 C-20.14756138 -0.10982651 -10.9270347 -0.10864286 0 0 Z " fill="#D71A01" transform="translate(329.892822265625,380.5458984375)"/>
<path d="M0 0 C1.43521227 -0.00417661 2.87042125 -0.00965592 4.30562413 -0.01631981 C8.23605709 -0.03075038 12.16627993 -0.02653721 16.09672427 -0.019153 C20.34086996 -0.01441768 24.58497043 -0.02693442 28.82910156 -0.03717041 C37.13862542 -0.05435681 45.44807365 -0.05519872 53.75761066 -0.04995751 C60.51268172 -0.04591416 67.26773045 -0.04736133 74.02280045 -0.05270576 C75.46558229 -0.0538284 75.46558229 -0.0538284 76.93751124 -0.05497371 C78.89159766 -0.05650521 80.84568408 -0.05804355 82.79977049 -0.05958868 C101.12044505 -0.07331323 119.44107689 -0.06787642 137.76175047 -0.05640347 C154.51576529 -0.04647189 171.26966966 -0.05941054 188.02366744 -0.08333766 C205.23406935 -0.10773106 222.44441983 -0.11733589 239.65483868 -0.11068493 C249.31421503 -0.10719315 258.97350645 -0.10942203 268.63286972 -0.12693596 C276.85596517 -0.14166096 285.07891588 -0.1422895 293.30200849 -0.12486505 C297.49569542 -0.11635499 301.68912382 -0.11420552 305.88279724 -0.1295166 C309.72588205 -0.14337372 313.56848709 -0.13858775 317.41154422 -0.11927737 C319.45172653 -0.11374755 321.49193333 -0.12778036 323.53206909 -0.14263147 C335.47178874 -0.0471458 344.16190792 3.19207626 352.89382935 11.38768005 C360.89452412 19.95858025 363.47492493 29.51182488 363.64382935 41.01268005 C363.688302 42.51894958 363.688302 42.51894958 363.7336731 44.0556488 C363.80350414 46.49973543 363.85662224 48.94291684 363.89382935 51.38768005 C363.15132935 50.83080505 362.40882935 50.27393005 361.64382935 49.70018005 C351.57139126 43.13798209 342.20312439 41.65735348 330.35754395 41.76622009 C328.81575627 41.76188316 327.27397347 41.75536002 325.73220313 41.74686003 C321.52562358 41.72996608 317.3196447 41.74398091 313.11309719 41.76337481 C308.5649946 41.77886616 304.01696256 41.76538346 299.46885681 41.75563049 C290.57160042 41.74113475 281.67457292 41.75330641 272.77733825 41.77474374 C262.40999548 41.79880279 252.04270462 41.79703638 241.67534013 41.79443783 C223.17520578 41.79075102 204.675179 41.81154505 186.17507935 41.84568787 C168.23397097 41.87878662 150.29297545 41.89294412 132.35183716 41.88670349 C112.7998609 41.87993597 93.24793185 41.88240928 73.69596255 41.90206289 C72.66163033 41.90310238 71.62729812 41.90414186 70.56162251 41.90521285 C68.48439388 41.9073037 66.40716527 41.90941467 64.32993668 41.91154602 C57.10742912 41.91843424 49.88493614 41.91911217 42.66242599 41.91766357 C33.85936076 41.91622231 25.0563874 41.92594334 16.25335263 41.94960994 C11.76400199 41.96145071 7.27477924 41.96860782 2.78541374 41.96277237 C-1.32760932 41.95758413 -5.44036266 41.96634643 -9.55333965 41.98604697 C-11.03766382 41.99076952 -12.52201442 41.99050883 -14.0063345 41.9846366 C-24.14500744 41.94841548 -33.55019078 42.39849414 -42.10617065 48.38768005 C-42.22396165 45.07548773 -42.2939422 41.76384514 -42.35617065 38.45018005 C-42.38968628 37.52398865 -42.4232019 36.59779724 -42.45773315 35.64353943 C-42.59690396 25.7276196 -38.95470074 17.5727832 -32.10617065 10.38768005 C-21.82003779 1.77563257 -13.12566917 -0.06220209 0 0 Z " fill="#FEFDFC" transform="translate(96.10617065429688,124.61231994628906)"/>
<path d="M0 0 C1.54504521 -0.00202702 3.09008915 -0.00536951 4.63512903 -0.00990558 C8.85961095 -0.0185174 13.08387142 -0.00852215 17.30833399 0.00463676 C21.87199818 0.01556671 26.43564267 0.00911682 30.99931335 0.00485229 C39.92920328 -0.00077243 48.85900711 0.00951623 57.78888237 0.02514026 C68.18548937 0.04269404 78.58207977 0.04409979 88.97869927 0.04475585 C107.52232222 0.0464427 126.06590596 0.06224536 144.60951233 0.08624268 C162.61211981 0.10952302 180.61470242 0.12367084 198.61732483 0.1272583 C199.72715074 0.12748107 200.83697664 0.12770384 201.98043364 0.12793335 C204.2161399 0.12837595 206.45184616 0.12881797 208.68755243 0.12925942 C209.79035044 0.12947899 210.89314845 0.12969855 212.02936459 0.12992477 C213.67933295 0.13024875 213.67933295 0.13024875 215.362634 0.13057928 C232.5124417 0.134277 249.66224539 0.14563473 266.81204868 0.15805517 C273.03216585 0.16249348 279.25228264 0.16593046 285.47240078 0.1686773 C295.33263516 0.17310401 305.19285471 0.18085829 315.05307972 0.19545171 C319.55974153 0.20207009 324.06639023 0.20712647 328.57305717 0.20791245 C332.69372145 0.20869682 336.8143525 0.21407834 340.93500645 0.22323194 C342.43003849 0.22574913 343.92507448 0.2265696 345.42010831 0.22557315 C347.44361832 0.22448443 349.46712869 0.23008193 351.49063015 0.23606491 C353.18041852 0.23793466 353.18041852 0.23793466 354.90434402 0.23984218 C357.65711975 0.36749268 357.65711975 0.36749268 360.65711975 1.36749268 C360.65711975 2.02749268 360.65711975 2.68749268 360.65711975 3.36749268 C361.50016663 3.74260986 362.3432135 4.11772705 363.21180725 4.50421143 C364.30751038 5.01596924 365.4032135 5.52772705 366.53211975 6.05499268 C367.62266663 6.55385986 368.7132135 7.05272705 369.83680725 7.56671143 C372.99845153 9.58543444 373.69921138 10.80868121 374.65711975 14.36749268 C370.69711975 13.37749268 370.69711975 13.37749268 366.65711975 12.36749268 C366.65711975 11.70749268 366.65711975 11.04749268 366.65711975 10.36749268 C357.9772213 9.59229188 349.37929618 9.21679375 340.66668701 9.20927429 C339.42643023 9.20433631 338.18617344 9.19939834 336.90833312 9.19431072 C333.50582231 9.18171409 330.10335134 9.17335873 326.70082676 9.16688406 C323.01661937 9.15880831 319.33243199 9.14513578 315.64823914 9.13217163 C309.27838462 9.11050964 302.90852798 9.09232811 296.53865623 9.0765667 C287.3290944 9.05377373 278.11955482 9.02564445 268.91001198 8.99624742 C253.96512874 8.94868643 239.02023634 8.90539144 224.07533264 8.86480713 C209.56490874 8.82539349 195.05449295 8.78395338 180.54408264 8.73980713 C179.64841238 8.73708286 178.75274211 8.73435858 177.82993033 8.73155176 C173.33624303 8.71787131 168.84255585 8.70415123 164.34886873 8.69041145 C127.11830261 8.57662742 89.88771915 8.46977847 52.65711975 8.36749268 C53.73113083 11.28266559 54.43522151 13.14559443 56.65711975 15.36749268 C57.33025498 22.32322342 57.33025498 22.32322342 55.21180725 25.60968018 C51.38511791 28.2427233 47.93318899 27.80136424 43.40711975 27.61749268 C42.566651 27.5994458 41.72618225 27.58139893 40.86024475 27.56280518 C38.79204581 27.51580065 36.72443534 27.44405992 34.65711975 27.36749268 C35.14051819 28.23180908 35.14051819 28.23180908 35.63368225 29.11358643 C37.29011158 32.76152429 37.03741412 35.37440177 36.65711975 39.36749268 C34.87547624 41.47393983 33.4224783 42.25838635 30.68934631 42.64801025 C28.31663749 42.77209193 25.97019779 42.77645646 23.59461975 42.74249268 C22.3716217 42.75989502 22.3716217 42.75989502 21.12391663 42.77764893 C20.33952209 42.77378174 19.55512756 42.76991455 18.7469635 42.76593018 C18.03403137 42.76254639 17.32109924 42.7591626 16.58656311 42.75567627 C14.05726142 42.24680752 13.17468371 41.43409996 11.65711975 39.36749268 C11.24129232 34.12806699 11.26591834 32.14989551 13.65711975 27.36749268 C19.92711975 27.03749268 26.19711975 26.70749268 32.65711975 26.36749268 C31.66711975 24.88249268 31.66711975 24.88249268 30.65711975 23.36749268 C30.39149475 21.17608643 30.39149475 21.17608643 30.40711975 18.80499268 C30.39938538 17.62743408 30.39938538 17.62743408 30.39149475 16.42608643 C30.65711975 14.36749268 30.65711975 14.36749268 32.65711975 12.36749268 C33.29964325 10.29875233 33.29964325 10.29875233 33.65711975 8.36749268 C26.91260977 8.48527232 20.16825652 8.61009995 13.42396545 8.73980713 C11.13005016 8.78309467 8.83610392 8.8247741 6.54212952 8.86480713 C3.24312521 8.92265934 -0.05572426 8.9863109 -3.354599 9.05108643 C-4.37873398 9.06779892 -5.40286896 9.08451141 -6.45803833 9.10173035 C-7.41865677 9.12167557 -8.37927521 9.14162079 -9.3690033 9.16217041 C-10.21061508 9.17771469 -11.05222687 9.19325897 -11.91934204 9.20927429 C-18.5323477 9.64099807 -23.59542927 12.2956991 -29.479599 15.18780518 C-30.42448181 15.57710205 -31.36936462 15.96639893 -32.34288025 16.36749268 C-33.00288025 16.03749268 -33.66288025 15.70749268 -34.34288025 15.36749268 C-33.40980604 13.92711598 -32.47122948 12.49030282 -31.53038025 11.05499268 C-31.00830994 10.25448486 -30.48623962 9.45397705 -29.948349 8.62921143 C-22.96242165 -1.21227746 -10.99989102 -0.06441376 0 0 Z " fill="#FFCB60" transform="translate(84.34288024902344,165.63250732421875)"/>
<path d="M0 0 C0.9343689 -0.00630432 1.86873779 -0.01260864 2.8314209 -0.019104 C4.34862732 -0.01303131 4.34862732 -0.01303131 5.89648438 -0.00683594 C6.93212524 -0.00874939 7.96776611 -0.01066284 9.03479004 -0.01263428 C11.22713463 -0.01399691 13.41948726 -0.01029508 15.61181641 -0.00195312 C18.97642054 0.00874514 22.34049069 -0.00184597 25.70507812 -0.01464844 C27.83138139 -0.01332686 29.95768433 -0.01076449 32.08398438 -0.00683594 C33.09545532 -0.0108844 34.10692627 -0.01493286 35.14904785 -0.019104 C36.08341675 -0.01279968 37.01778564 -0.00649536 37.98046875 0 C39.21718323 0.00238678 39.21718323 0.00238678 40.47888184 0.00482178 C42.49023438 0.25878906 42.49023438 0.25878906 44.49023438 2.25878906 C44.74420166 5.13658142 44.74420166 5.13658142 44.74902344 8.86401367 C44.75252808 9.54223679 44.75603271 10.2204599 44.75964355 10.91923523 C44.76846337 13.16663782 44.76261036 15.41372688 44.75585938 17.66113281 C44.75720611 19.22050538 44.75914672 20.77987753 44.76165771 22.33924866 C44.76460944 25.61023957 44.76031042 28.88112137 44.75097656 32.15209961 C44.73959137 36.34662804 44.74613517 40.54090028 44.75812149 44.73541927 C44.76534688 47.95673046 44.76304889 51.17798088 44.75786591 54.3992939 C44.7565308 55.94586785 44.75817229 57.49244729 44.76282501 59.03901482 C44.7679004 61.20088189 44.76016568 63.36233379 44.74902344 65.52416992 C44.74743225 66.75501816 44.74584106 67.98586639 44.74420166 69.25401306 C44.49023438 72.25878906 44.49023438 72.25878906 42.49023438 75.25878906 C40.46542358 75.61955261 40.46542358 75.61955261 37.94873047 75.59936523 C36.53749405 75.59902534 36.53749405 75.59902534 35.0977478 75.59867859 C34.08000275 75.58319473 33.06225769 75.56771088 32.01367188 75.55175781 C30.97328766 75.54751297 29.93290344 75.54326813 28.86099243 75.53889465 C25.5288129 75.52206389 22.19723197 75.48440328 18.86523438 75.44628906 C16.61003476 75.43124793 14.35482569 75.41755854 12.09960938 75.40527344 C6.56294583 75.37214606 1.02663285 75.32190326 -4.50976562 75.25878906 C-6.7503554 71.66563034 -6.76305752 68.68568004 -6.76855469 64.50244141 C-6.77205933 63.83207352 -6.77556396 63.16170563 -6.7791748 62.47102356 C-6.78795527 60.26215162 -6.78215751 58.05360158 -6.77539062 55.84472656 C-6.77673802 54.30823709 -6.77867918 52.77174803 -6.78118896 51.23526001 C-6.78413496 48.0191033 -6.77985832 44.80305783 -6.77050781 41.58691406 C-6.7590943 37.4596036 -6.76568795 33.33255271 -6.77765274 29.20525169 C-6.78486917 26.03459709 -6.78258476 22.86400436 -6.77739716 19.69334793 C-6.77606105 18.17106724 -6.77770702 16.64878098 -6.78235626 15.12650681 C-6.78742012 13.0029682 -6.77971458 10.8798545 -6.76855469 8.75634766 C-6.7669635 7.54707611 -6.76537231 6.33780457 -6.76373291 5.09188843 C-6.33487996 0.30787451 -4.29872378 0.00829626 0 0 Z " fill="#FFFCF8" transform="translate(99.509765625,337.7412109375)"/>
<path d="M0 0 C1.13744955 3.60751005 1.08448918 6.93064933 1.02172852 10.69628906 C1.0073172 11.69202942 1.0073172 11.69202942 0.99261475 12.70788574 C0.95973187 14.89391039 0.91935925 17.07972844 0.87890625 19.265625 C0.85459464 20.78447754 0.8307516 22.30333764 0.80735779 23.82220459 C0.74462036 27.81384928 0.67552462 31.80535948 0.60510254 35.796875 C0.53432551 39.8723337 0.46956467 43.94788751 0.40429688 48.0234375 C0.27541789 56.01573034 0.13982133 64.00789113 0 72 C-28.74820754 72.09132547 -57.49639792 72.1620774 -86.24472206 72.20426132 C-89.6416639 72.20926392 -93.03860546 72.21444123 -96.43554688 72.21972656 C-97.11179332 72.2207758 -97.78803977 72.22182505 -98.48477854 72.22290608 C-109.42266372 72.24029322 -120.36046449 72.27182152 -131.29829966 72.30861118 C-142.52840333 72.3460678 -153.75846496 72.36794656 -164.98863423 72.37635398 C-171.29358199 72.38156504 -177.59833852 72.39379827 -183.90322495 72.42292023 C-189.84081952 72.45012281 -195.77814454 72.45843507 -201.71579552 72.45243073 C-203.8917875 72.45352878 -206.06778874 72.46145354 -208.24372673 72.4768219 C-211.22269774 72.49682529 -214.20066095 72.49190123 -217.17965698 72.48101807 C-218.03377383 72.49266943 -218.88789068 72.5043208 -219.76788986 72.51632524 C-226.18544018 72.45327563 -231.21585889 70.70246784 -237 68 C-237.66941616 67.6889892 -238.33883232 67.37797841 -239.02853382 67.05754304 C-247.64799472 62.86180612 -253.75562934 53.45061446 -257.3125 44.8125 C-257.97947082 42.08398301 -258.16443372 39.79537324 -258 37 C-255.32098068 39.31881505 -254.33795597 41.31814468 -253.3125 44.6875 C-253.06113281 45.49574219 -252.80976563 46.30398438 -252.55078125 47.13671875 C-252.36902344 47.75160156 -252.18726563 48.36648438 -252 49 C-251.34 47.68 -250.68 46.36 -250 45 C-250 45.99 -250 46.98 -250 48 C-249.01 48 -248.02 48 -247 48 C-247 48.66 -247 49.32 -247 50 C-246.34 50 -245.68 50 -245 50 C-244.4225 50.763125 -243.845 51.52625 -243.25 52.3125 C-240.73572542 55.3156613 -238.52464447 56.39092317 -235 58 C-234.34 58.66 -233.68 59.32 -233 60 C-221.89585351 64.08825857 -210.05159685 63.40483191 -198.4206543 63.34057617 C-196.26112886 63.33972863 -194.10160257 63.34020751 -191.94207764 63.34190369 C-186.11444404 63.34276012 -180.28699784 63.32519159 -174.45940757 63.30418181 C-168.35623371 63.28535603 -162.25305498 63.28365993 -156.14985657 63.28010559 C-144.60818459 63.27080242 -133.06659844 63.24621208 -121.52496415 63.21605712 C-108.37861292 63.18245922 -95.23225748 63.16601357 -82.08587396 63.15097082 C-55.05720183 63.11966096 -28.02860574 63.06693418 -1 63 C-1.00222061 62.25497726 -1.00444122 61.50995453 -1.00672913 60.74235535 C-1.02676019 53.72369072 -1.04198853 46.70503599 -1.05181217 39.68635082 C-1.05703236 36.07791615 -1.06411436 32.46950508 -1.07543945 28.86108398 C-1.086299 25.37923767 -1.09228336 21.89741408 -1.09487724 18.41555214 C-1.0976261 16.43964005 -1.10543327 14.4637371 -1.11329651 12.48783875 C-1.11340981 10.68631096 -1.11340981 10.68631096 -1.11352539 8.84838867 C-1.115746 7.78915695 -1.11796661 6.72992523 -1.12025452 5.63859558 C-1 3 -1 3 0 0 Z " fill="#C86E00" transform="translate(294,399)"/>
<path d="M0 0 C0.65087382 -0.00205263 1.30174764 -0.00410527 1.97234491 -0.0062201 C4.15042449 -0.01186854 6.3284404 -0.01043554 8.50652599 -0.00901413 C10.08508937 -0.01159899 11.66365209 -0.01461249 13.2422139 -0.01801753 C17.57808835 -0.02607634 21.91394622 -0.02787648 26.24982727 -0.028615 C30.92683376 -0.03046746 35.6038317 -0.03801568 40.28083324 -0.04475021 C50.50596157 -0.05832528 60.73108598 -0.06435673 70.95622182 -0.06876087 C77.34079048 -0.07152423 83.72535763 -0.07576171 90.10992527 -0.08026505 C107.78757444 -0.09245575 125.46522239 -0.10275603 143.14287567 -0.10614014 C144.83955616 -0.10646949 144.83955616 -0.10646949 146.57051302 -0.10680549 C147.70433037 -0.10702377 148.83814771 -0.10724204 150.00632316 -0.10746694 C152.30385069 -0.1079104 154.60137822 -0.10835697 156.89890575 -0.10880661 C158.03855741 -0.10902804 159.17820906 -0.10924947 160.35239562 -0.10947761 C178.82405165 -0.11342671 197.29566825 -0.13088505 215.76730905 -0.15416613 C234.73254215 -0.17787642 253.69775546 -0.19034181 272.66300362 -0.19150805 C283.3110851 -0.1924249 293.95911518 -0.19817983 304.6071825 -0.21632767 C313.67280614 -0.23172416 322.73836249 -0.2368517 331.80399672 -0.22858956 C336.42888765 -0.22468172 341.05364307 -0.22561935 345.67851734 -0.23964691 C349.91444621 -0.2523773 354.1501376 -0.25119591 358.3860661 -0.2390562 C359.91632166 -0.23709773 361.446594 -0.24018457 362.97682599 -0.24890056 C370.8993868 -0.29116018 377.97546392 -0.19597067 385.30539989 3.13142776 C386.86789989 5.81892776 386.86789989 5.81892776 387.30539989 8.13142776 C383.34539989 7.14142776 383.34539989 7.14142776 379.30539989 6.13142776 C379.30539989 5.47142776 379.30539989 4.81142776 379.30539989 4.13142776 C370.62550144 3.35622696 362.02757633 2.98072884 353.31496716 2.97320938 C352.07471037 2.9682714 350.83445359 2.96333343 349.55661327 2.95824581 C346.15410245 2.94564918 342.75163148 2.93729382 339.34910691 2.93081915 C335.66489951 2.9227434 331.98071213 2.90907087 328.29651928 2.89610672 C321.92666476 2.87444473 315.55680812 2.8562632 309.18693638 2.84050179 C299.97737455 2.81770881 290.76783497 2.78957954 281.55829213 2.76018251 C266.61340888 2.71262152 251.66851649 2.66932653 236.72361279 2.62874222 C222.21318889 2.58932858 207.70277309 2.54788847 193.19236279 2.50374222 C192.29669252 2.50101795 191.40102226 2.49829367 190.47821047 2.49548685 C185.98452317 2.4818064 181.49083599 2.46808632 176.99714887 2.45434654 C139.76658275 2.34056251 102.53599929 2.23371356 65.30539989 2.13142776 C66.37941097 5.04660068 67.08350165 6.90952952 69.30539989 9.13142776 C69.97853513 16.08715851 69.97853513 16.08715851 67.86008739 19.37361526 C64.03339805 22.00665839 60.58146913 21.56529933 56.05539989 21.38142776 C55.21493114 21.36338089 54.37446239 21.34533401 53.50852489 21.32674026 C51.44032595 21.27973574 49.37271549 21.20799501 47.30539989 21.13142776 C47.78879833 21.99574417 47.78879833 21.99574417 48.28196239 22.87752151 C49.93839172 26.52545938 49.68569427 29.13833686 49.30539989 33.13142776 C47.52375639 35.23787492 46.07075844 36.02232144 43.33762646 36.41194534 C40.96491763 36.53602702 38.61847794 36.54039155 36.24289989 36.50642776 C35.01990185 36.52383011 35.01990185 36.52383011 33.77219677 36.54158401 C32.98780224 36.53771683 32.20340771 36.53384964 31.39524364 36.52986526 C30.68231152 36.52648148 29.96937939 36.52309769 29.23484325 36.51961136 C26.70554156 36.01074261 25.82296385 35.19803505 24.30539989 33.13142776 C23.88957246 27.89200207 23.91419848 25.91383059 26.30539989 21.13142776 C32.57539989 20.80142776 38.84539989 20.47142776 45.30539989 20.13142776 C44.31539989 18.64642776 44.31539989 18.64642776 43.30539989 17.13142776 C43.03977489 14.94002151 43.03977489 14.94002151 43.05539989 12.56892776 C43.04766552 11.39136917 43.04766552 11.39136917 43.03977489 10.19002151 C43.30539989 8.13142776 43.30539989 8.13142776 45.30539989 6.13142776 C45.94792339 4.06268742 45.94792339 4.06268742 46.30539989 2.13142776 C39.56088992 2.24920741 32.81653667 2.37403504 26.0722456 2.50374222 C23.7783303 2.54702976 21.48438406 2.58870919 19.19040966 2.62874222 C15.89140536 2.68659443 12.59255588 2.75024599 9.29368114 2.81502151 C8.26954617 2.83173401 7.24541119 2.8484465 6.19024181 2.86566544 C5.22962337 2.88561066 4.26900494 2.90555588 3.27927685 2.9261055 C2.43766506 2.94164978 1.59605328 2.95719406 0.7289381 2.97320938 C-5.88406755 3.40493316 -10.94714913 6.05963419 -16.83131886 8.95174026 C-17.77620167 9.34103714 -18.72108448 9.73033401 -19.69460011 10.13142776 C-20.35460011 9.80142776 -21.01460011 9.47142776 -21.69460011 9.13142776 C-15.42358588 1.11846514 -10.20493478 0.01100092 0 0 Z " fill="#FFBF3A" transform="translate(71.69460010528564,171.86857223510742)"/>
<path d="M0 0 C25 0 25 0 33 4 C38.37666571 9.65964811 39.52485045 14.27328942 39.375 21.953125 C38.61910268 28.09479074 35.69599479 31.49244908 31.1875 35.5 C25.3382735 38.49018754 17.23246846 37.20603202 11 37 C11 43.6 11 50.2 11 57 C7.37 57 3.74 57 0 57 C0 38.19 0 19.38 0 0 Z " fill="#FDF6F6" transform="translate(399,398)"/>
<path d="M0 0 C12.87 0 25.74 0 39 0 C39 8.99762349 39 8.99762349 36.54296875 12.7421875 C36.0121167 13.57274658 35.48126465 14.40330566 34.93432617 15.2590332 C34.35787354 16.12230225 33.7814209 16.98557129 33.1875 17.875 C31.99926735 19.71958034 30.81178178 21.56464211 29.625 23.41015625 C29.02171875 24.33586426 28.4184375 25.26157227 27.796875 26.21533203 C25.01182122 30.53140858 22.35061733 34.9205702 19.6875 39.3125 C18.140625 41.849375 16.59375 44.38625 15 47 C22.92 47 30.84 47 39 47 C39 50.3 39 53.6 39 57 C26.46 57 13.92 57 1 57 C1 46.91712707 1 46.91712707 4.5625 41.9375 C5.37810961 40.75865582 6.19032559 39.57745982 7 38.39453125 C7.4640625 37.72502441 7.928125 37.05551758 8.40625 36.36572266 C11.76685236 31.37732853 14.89091298 26.23471658 18.0625 21.125 C19.38636747 19.00238503 20.71055943 16.8799724 22.03515625 14.7578125 C23.50275391 12.40269531 23.50275391 12.40269531 25 10 C16.75 10 8.5 10 0 10 C0 6.7 0 3.4 0 0 Z " fill="#FDF5F5" transform="translate(333,398)"/>
<path d="M0 0 C29.02001699 -0.09130558 58.04001994 -0.16206716 87.06015193 -0.20426132 C90.48842509 -0.20926398 93.91669797 -0.21444128 97.3449707 -0.21972656 C98.36870569 -0.22130043 98.36870569 -0.22130043 99.41312218 -0.22290608 C110.4551469 -0.24029801 121.49708807 -0.27182897 132.53906327 -0.30861118 C143.8742598 -0.34605445 155.20939452 -0.3679437 166.54465681 -0.37635398 C172.90937559 -0.38156734 179.27390506 -0.39381519 185.63856316 -0.42292023 C191.63114595 -0.45010137 197.62346173 -0.45843938 203.61610031 -0.45243073 C205.81347543 -0.45352974 208.01085963 -0.46146729 210.20818138 -0.4768219 C213.21377459 -0.49679164 216.21836626 -0.49191332 219.22398376 -0.48101807 C220.08879535 -0.49266943 220.95360694 -0.5043208 221.84462494 -0.51632524 C227.7391581 -0.45876733 233.05821271 0.61010399 238 4 C239.25087494 6.13874602 239.25087494 6.13874602 240 8 C235.54288344 8.16507839 231.65580148 8.01143241 227.30557632 7.00833035 C222.30742943 5.97257831 217.57735944 5.71707864 212.48577881 5.74171448 C211.58308644 5.73803877 210.68039406 5.73436307 209.75034738 5.73057598 C206.75505526 5.72067343 203.75995163 5.72473117 200.76464844 5.72875977 C198.60544642 5.72436845 196.44624609 5.71906482 194.28704834 5.71292114 C189.65235103 5.70145496 185.01769923 5.69596424 180.38298798 5.69503975 C173.05462 5.69309424 165.72634594 5.67501658 158.39801025 5.65428162 C140.20294778 5.60516807 122.00785999 5.57418038 103.81274414 5.55297852 C89.65681022 5.53646209 75.50095733 5.51368352 61.34507775 5.46995777 C54.05927735 5.44816837 46.77363087 5.44012465 39.48780012 5.44235051 C34.95983102 5.44068537 30.43196278 5.42664756 25.90402985 5.40913773 C23.80377434 5.40353291 21.70349796 5.40305785 19.60324097 5.40807533 C16.73735823 5.41420465 13.87211377 5.40200692 11.00628662 5.38526917 C9.75872105 5.39458689 9.75872105 5.39458689 8.48595214 5.40409285 C3.57559567 5.35179757 0.31083369 4.61065614 -4 2 C-2 1 -2 1 0 1 C0 0.67 0 0.34 0 0 Z " fill="#FE982C" transform="translate(223,77)"/>
<path d="M0 0 C1.21042969 -0.0299707 1.21042969 -0.0299707 2.4453125 -0.06054688 C6.28300056 -0.05738047 8.34869244 -0.02886838 11.53125 2.25 C13.70046893 5.4807516 13.53409126 7.63209979 13 11.4375 C11.515625 14.109375 11.515625 14.109375 9 16.4375 C6.08742451 17.18377347 3.24609126 17.22764111 0.25 17.25 C-0.54277344 17.27513672 -1.33554688 17.30027344 -2.15234375 17.32617188 C-4.10103195 17.3848673 -6.05056859 17.4140898 -8 17.4375 C-7.67 17.7675 -7.34 18.0975 -7 18.4375 C-6.90145345 20.08090867 -6.87027589 21.7286461 -6.875 23.375 C-6.87113281 24.71884766 -6.87113281 24.71884766 -6.8671875 26.08984375 C-7 28.4375 -7 28.4375 -8 30.4375 C-6.81921875 30.39109375 -5.6384375 30.3446875 -4.421875 30.296875 C-2.86460866 30.25935051 -1.30731492 30.22295107 0.25 30.1875 C1.02730469 30.15398437 1.80460937 30.12046875 2.60546875 30.0859375 C6.33333785 30.02221324 8.36676592 30.01207648 11.5234375 32.1328125 C13.26740365 34.85487606 13.48037249 36.35342876 13.375 39.5625 C13.36210937 40.43132812 13.34921875 41.30015625 13.3359375 42.1953125 C13 44.4375 13 44.4375 11 46.4375 C7.54056667 46.88841675 4.04795566 46.76156422 0.5625 46.75 C-0.40494141 46.76611328 -1.37238281 46.78222656 -2.36914062 46.79882812 C-3.29791016 46.79947266 -4.22667969 46.80011719 -5.18359375 46.80078125 C-6.03493896 46.80376221 -6.88628418 46.80674316 -7.76342773 46.80981445 C-10.47785047 46.35795388 -11.35748927 45.60781994 -13 43.4375 C-13.36328125 41.24609375 -13.36328125 41.24609375 -13.3125 38.875 C-13.30863281 38.08996094 -13.30476563 37.30492187 -13.30078125 36.49609375 C-13 34.4375 -13 34.4375 -11 32.4375 C-11.83978394 32.42348145 -11.83978394 32.42348145 -12.6965332 32.40917969 C-15.23608146 32.35545493 -17.77379111 32.27181813 -20.3125 32.1875 C-21.63411133 32.16623047 -21.63411133 32.16623047 -22.98242188 32.14453125 C-29.46747822 31.89795116 -29.46747822 31.89795116 -32.078125 29.640625 C-33.01285188 27.40678618 -33.43278601 25.85106097 -33.4375 23.4375 C-33.45683594 22.7775 -33.47617188 22.1175 -33.49609375 21.4375 C-32.72051905 18.31077367 -31.65583017 17.2758388 -29 15.4375 C-25.9007349 14.95404918 -22.87689805 15.06046977 -19.75 15.1875 C-18.90953125 15.20554688 -18.0690625 15.22359375 -17.203125 15.2421875 C-15.13492605 15.28919202 -13.06731559 15.36093276 -11 15.4375 C-11.66 14.4475 -12.32 13.4575 -13 12.4375 C-13.3359375 10.28125 -13.3359375 10.28125 -13.375 7.9375 C-13.40335938 7.1640625 -13.43171875 6.390625 -13.4609375 5.59375 C-13 3.4375 -13 3.4375 -11.5390625 1.68359375 C-7.73122748 -0.18517451 -4.18622565 -0.03677994 0 0 Z " fill="#FFF8ED" transform="translate(128,207.5625)"/>
<path d="M0 0 C3.367411 2.89971503 4.02149536 5.8647865 5.15625 10.0390625 C5.4346875 10.68617188 5.713125 11.33328125 6 12 C6.99 12.33 7.98 12.66 9 13 C9.93650892 14.43821012 10.87201077 15.87709294 11.80078125 17.3203125 C17.43854486 25.21685437 26.81371084 28.91201451 36.13520908 30.55139065 C40.49099625 31.05699287 44.73800456 31.15304344 49.11790466 31.15821838 C50.01410005 31.16315636 50.91029544 31.16809434 51.83364826 31.17318195 C54.82456255 31.18849086 57.81545548 31.1968996 60.80639648 31.20532227 C62.95518683 31.21490599 65.10397531 31.22491636 67.25276184 31.23532104 C73.07859585 31.26232263 78.90443791 31.28335788 84.73029971 31.30332303 C90.82152187 31.32521188 96.91271931 31.35258638 103.00392151 31.37937927 C114.53511381 31.42926696 126.06631986 31.47422035 137.59753901 31.51740164 C150.7268512 31.56680755 163.85613859 31.62171324 176.98542678 31.67708123 C203.99026137 31.79084104 230.99511976 31.89769314 258 32 C258 32.99 258 33.98 258 35 C229.25179246 35.09132547 200.50360208 35.1620774 171.75527794 35.20426132 C168.3583361 35.20926392 164.96139454 35.21444123 161.56445312 35.21972656 C160.88820668 35.2207758 160.21196023 35.22182505 159.51522146 35.22290608 C148.57733628 35.24029322 137.63953551 35.27182152 126.70170034 35.30861118 C115.47159667 35.3460678 104.24153504 35.36794656 93.01136577 35.37635398 C86.70641801 35.38156504 80.40166148 35.39379827 74.09677505 35.42292023 C68.15918048 35.45012281 62.22185546 35.45843507 56.28420448 35.45243073 C54.1082125 35.45352878 51.93221126 35.46145354 49.75627327 35.4768219 C46.77730226 35.49682529 43.79933905 35.49190123 40.82034302 35.48101807 C39.96622617 35.49266943 39.11210932 35.5043208 38.23211014 35.51632524 C31.81455982 35.45327563 26.78414111 33.70246784 21 31 C20.33058384 30.6889892 19.66116768 30.37797841 18.97146618 30.05754304 C10.35200528 25.86180612 4.24437066 16.45061446 0.6875 7.8125 C0.02052918 5.08398301 -0.16443372 2.79537324 0 0 Z " fill="#9C5500" transform="translate(36,436)"/>
<path d="M0 0 C0.75474609 -0.01160156 1.50949219 -0.02320313 2.28710938 -0.03515625 C5.52211587 -0.01805489 8.02631911 0.17133096 10.9453125 1.6171875 C12.84171063 3.85116436 12.89002994 4.97782884 12.75 7.875 C12.72550781 8.6484375 12.70101562 9.421875 12.67578125 10.21875 C12.4375 12.375 12.4375 12.375 11.4375 15.375 C12.61828125 15.32859375 13.7990625 15.2821875 15.015625 15.234375 C16.57289134 15.19685051 18.13018508 15.16045107 19.6875 15.125 C20.46480469 15.09148437 21.24210937 15.05796875 22.04296875 15.0234375 C25.8156481 14.95894725 27.79686559 14.92536219 30.953125 17.140625 C32.50881675 19.48235047 32.98087929 20.59872547 32.9375 23.375 C32.9478125 24.035 32.958125 24.695 32.96875 25.375 C32.15420517 28.44152171 31.02169505 29.53087959 28.4375 31.375 C25.46898279 31.77591196 22.95598772 31.93558386 20 31.875 C19.24912109 31.89046875 18.49824219 31.9059375 17.72460938 31.921875 C13.89405454 31.89492299 11.80803352 31.58886176 8.42578125 29.63671875 C6.14582023 27.0432071 5.84973014 26.07502006 6.0625 22.6875 C6.09601563 21.89988281 6.12953125 21.11226563 6.1640625 20.30078125 C6.4375 18.375 6.4375 18.375 7.4375 17.375 C6.25671875 17.36082031 5.0759375 17.34664063 3.859375 17.33203125 C2.30204458 17.28512371 0.7447541 17.23687635 -0.8125 17.1875 C-1.58980469 17.18169922 -2.36710937 17.17589844 -3.16796875 17.16992188 C-7.23506081 17.01349526 -8.97871912 16.90793837 -12.07421875 14.08203125 C-14.3278386 9.98292742 -14.23467018 8.00550571 -13.5625 3.375 C-9.38404752 -0.2158576 -5.23058928 -0.08081597 0 0 Z " fill="#FFFAF4" transform="translate(108.5625,284.625)"/>
<path d="M0 0 C1.28874023 -0.0299707 1.28874023 -0.0299707 2.60351562 -0.06054688 C8.85033999 -0.05570062 8.85033999 -0.05570062 12.12890625 2.21484375 C13.63166098 4.54472778 14.10534195 5.69561489 14.0625 8.4375 C14.0728125 9.0975 14.083125 9.7575 14.09375 10.4375 C13.26851099 13.54428214 12.21478463 14.59879961 9.5625 16.4375 C6.46325314 16.92100654 3.4393845 16.81452968 0.3125 16.6875 C-0.52796875 16.66945312 -1.3684375 16.65140625 -2.234375 16.6328125 C-4.30257395 16.58580798 -6.37018441 16.51406724 -8.4375 16.4375 C-7.95410156 17.30181641 -7.95410156 17.30181641 -7.4609375 18.18359375 C-5.80450817 21.83153162 -6.05720563 24.4444091 -6.4375 28.4375 C-8.21914351 30.54394715 -9.67214146 31.32839368 -12.40527344 31.71801758 C-14.77798226 31.84209925 -17.12442196 31.84646378 -19.5 31.8125 C-20.31533203 31.82410156 -21.13066406 31.83570313 -21.97070312 31.84765625 C-22.75509766 31.84378906 -23.53949219 31.83992188 -24.34765625 31.8359375 C-25.06058838 31.83255371 -25.77352051 31.82916992 -26.50805664 31.82568359 C-29.03735833 31.31681485 -29.91993604 30.50410728 -31.4375 28.4375 C-31.85332744 23.19807431 -31.82870141 21.21990283 -29.4375 16.4375 C-20.0325 15.9425 -20.0325 15.9425 -10.4375 15.4375 C-11.0975 14.4475 -11.7575 13.4575 -12.4375 12.4375 C-12.73828125 10.28125 -12.73828125 10.28125 -12.75 7.9375 C-12.76675781 7.1640625 -12.78351563 6.390625 -12.80078125 5.59375 C-11.67269966 -1.10196008 -5.34463927 -0.04390667 0 0 Z " fill="#FFFBF4" transform="translate(127.4375,176.5625)"/>
<path d="M0 0 C0.93199219 -0.00257813 1.86398438 -0.00515625 2.82421875 -0.0078125 C3.80003906 -0.00007813 4.77585937 0.00765625 5.78125 0.015625 C6.75707031 0.00789063 7.73289062 0.00015625 8.73828125 -0.0078125 C9.67027344 -0.00523437 10.60226563 -0.00265625 11.5625 0 C12.41908203 0.00225586 13.27566406 0.00451172 14.15820312 0.00683594 C16.28125 0.265625 16.28125 0.265625 18.28125 2.265625 C18.52416992 4.77172852 18.52416992 4.77172852 18.51171875 7.89453125 C18.50978516 9.01150391 18.50785156 10.12847656 18.50585938 11.27929688 C18.48749023 13.0359668 18.48749023 13.0359668 18.46875 14.828125 C18.46810547 16.00310547 18.46746094 17.17808594 18.46679688 18.38867188 C18.42137141 27.12550359 18.42137141 27.12550359 17.28125 28.265625 C13.64225825 28.51718769 9.99041327 28.45084726 6.34375 28.453125 C5.31572266 28.46537109 4.28769531 28.47761719 3.22851562 28.49023438 C1.75608398 28.49313477 1.75608398 28.49313477 0.25390625 28.49609375 C-1.10335571 28.50225708 -1.10335571 28.50225708 -2.48803711 28.50854492 C-4.71875 28.265625 -4.71875 28.265625 -6.71875 26.265625 C-6.97753906 23.8671875 -6.97753906 23.8671875 -6.984375 20.890625 C-6.98695312 19.82328125 -6.98953125 18.7559375 -6.9921875 17.65625 C-6.98058594 15.97789062 -6.98058594 15.97789062 -6.96875 14.265625 C-6.97648437 13.14671875 -6.98421875 12.0278125 -6.9921875 10.875 C-6.98960938 9.80765625 -6.98703125 8.7403125 -6.984375 7.640625 C-6.98211914 6.65835937 -6.97986328 5.67609375 -6.97753906 4.6640625 C-6.4810058 0.06222967 -4.02258436 0.01059371 0 0 Z " fill="#FF980E" transform="translate(112.71875,370.734375)"/>
<path d="M0 0 C3.63 0 7.26 0 11 0 C11 19.14 11 38.28 11 58 C7.37 58 3.74 58 0 58 C0 38.86 0 19.72 0 0 Z " fill="#FCF2F1" transform="translate(379,398)"/>
<path d="M0 0 C1.05589325 -0.00137466 2.1117865 -0.00274933 3.19967651 -0.00416565 C4.357733 -0.00057037 5.51578949 0.0030249 6.7089386 0.00672913 C7.928573 0.0065831 9.1482074 0.00643707 10.40480042 0.00628662 C13.74958156 0.00686434 17.09430116 0.01188326 20.43907142 0.01886058 C23.93444624 0.02510741 27.42982187 0.02569897 30.92520142 0.02688599 C37.54435372 0.02999537 44.16348952 0.03820349 50.78263456 0.04823548 C58.31822957 0.05940878 65.85382536 0.06491014 73.38942659 0.06993091 C88.8908783 0.08038641 104.39231355 0.09797828 119.89375305 0.12025452 C119.89375305 0.78025452 119.89375305 1.44025452 119.89375305 2.12025452 C120.51250305 2.24400452 121.13125305 2.36775452 121.76875305 2.49525452 C123.89375305 3.12025452 123.89375305 3.12025452 125.89375305 5.12025452 C125.23375305 5.12025452 124.57375305 5.12025452 123.89375305 5.12025452 C123.89375305 5.78025452 123.89375305 6.44025452 123.89375305 7.12025452 C122.67216995 6.79493744 121.45058685 6.46962036 120.19198608 6.13444519 C114.16668389 4.80486945 108.26856701 4.85525129 102.12202454 4.89320374 C100.87225327 4.89291168 99.62248199 4.89261963 98.33483887 4.89231873 C94.93455661 4.89346696 91.53452223 4.90344373 88.13428378 4.91746664 C84.57088383 4.93003496 81.00747998 4.93114928 77.44406128 4.93351746 C70.7082126 4.9397144 63.97242945 4.95610084 57.23660952 4.97621644 C49.56303731 4.99863127 41.88946185 5.00958286 34.21586502 5.01960731 C18.44178985 5.04046881 2.66777993 5.07560976 -13.10624695 5.12025452 C-8.6229645 1.36399085 -5.83072662 -0.00584827 0 0 Z " fill="#FE9321" transform="translate(66.10624694824219,40.87974548339844)"/>
<path d="M0 0 C0.86316232 0.24321005 0.86316232 0.24321005 1.74376225 0.49133343 C3.9484406 0.98837598 5.84524513 1.13010668 8.09980392 1.1386652 C8.9124325 1.14413964 9.72506107 1.14961409 10.56231475 1.15525442 C11.44947244 1.15623253 12.33663013 1.15721064 13.25067139 1.15821838 C14.67074883 1.16562535 14.67074883 1.16562535 16.1195147 1.17318195 C19.29940125 1.18856938 22.47926758 1.19692098 25.65917969 1.20532227 C27.93560464 1.21489981 30.21202781 1.22490981 32.4884491 1.23532104 C38.67602003 1.26238958 44.86359862 1.28338862 51.0511961 1.30332303 C57.5147968 1.32517054 63.9783739 1.35256527 70.44195557 1.37937927 C81.29316219 1.42364468 92.14437601 1.46447711 102.99560547 1.50268555 C114.1723729 1.54204963 125.34912954 1.58347804 136.52587891 1.62768555 C137.21482399 1.63040982 137.90376908 1.63313409 138.61359128 1.63594092 C142.06982934 1.64962055 145.52606723 1.66334079 148.98230505 1.67708123 C177.6548474 1.79101773 206.32741369 1.89776029 235 2 C235.33 1.34 235.66 0.68 236 0 C241.66153846 2.46153846 241.66153846 2.46153846 243.375 5.1875 C243.58125 5.785625 243.7875 6.38375 244 7 C239.54288344 7.16507839 235.65580148 7.01143241 231.30557632 6.00833035 C226.30742943 4.97257831 221.57735944 4.71707864 216.48577881 4.74171448 C215.58308644 4.73803877 214.68039406 4.73436307 213.75034738 4.73057598 C210.75505526 4.72067343 207.75995163 4.72473117 204.76464844 4.72875977 C202.60544642 4.72436845 200.44624609 4.71906482 198.28704834 4.71292114 C193.65235103 4.70145496 189.01769923 4.69596424 184.38298798 4.69503975 C177.05462 4.69309424 169.72634594 4.67501658 162.39801025 4.65428162 C144.20294778 4.60516807 126.00785999 4.57418038 107.81274414 4.55297852 C93.65681022 4.53646209 79.50095733 4.51368352 65.34507775 4.46995777 C58.05927735 4.44816837 50.77363087 4.44012465 43.48780012 4.44235051 C38.95983102 4.44068537 34.43196278 4.42664756 29.90402985 4.40913773 C27.80377434 4.40353291 25.70349796 4.40305785 23.60324097 4.40807533 C20.73735823 4.41420465 17.87211377 4.40200692 15.00628662 4.38526917 C13.75872105 4.39458689 13.75872105 4.39458689 12.48595214 4.40409285 C7.57559567 4.35179757 4.31083369 3.61065614 0 1 C0 0.67 0 0.34 0 0 Z " fill="#FE8F18" transform="translate(219,78)"/>
<path d="M0 0 C1.05099189 3.41795079 1.08801017 6.48923068 1.02172852 10.05371094 C1.00163223 11.27467468 0.98153595 12.49563843 0.96083069 13.75360107 C0.93379562 15.06725647 0.90676056 16.38091187 0.87890625 17.734375 C0.85459146 19.0962849 0.83074859 20.45820331 0.80735779 21.82012939 C0.74465193 25.39749871 0.67554744 28.97471675 0.60510254 32.55194092 C0.53429682 36.20513036 0.4695532 39.85842671 0.40429688 43.51171875 C0.27545865 50.67459744 0.1398594 57.83732713 0 65 C-28.50222439 65.04558966 -57.0044442 65.08100097 -85.50669789 65.10213066 C-88.86888589 65.10463218 -92.23107382 65.10722081 -95.59326172 65.10986328 C-96.26263481 65.1103879 -96.93200789 65.11091252 -97.62166502 65.11145304 C-108.4711565 65.12016424 -119.32062686 65.13593813 -130.1701058 65.15430559 C-141.29621468 65.17298478 -152.42231631 65.18396274 -163.54844105 65.18817699 C-169.80053285 65.19079097 -176.0525767 65.19696121 -182.30465317 65.21146011 C-188.18307383 65.22498271 -194.06142656 65.22923348 -199.9398613 65.22621536 C-202.10307687 65.22676792 -204.26629459 65.23077691 -206.42949677 65.23841095 C-209.371611 65.24828898 -212.31346508 65.24599518 -215.25558472 65.24050903 C-216.12133145 65.24633472 -216.98707819 65.2521604 -217.87905967 65.25816262 C-223.77175758 65.22824242 -223.77175758 65.22824242 -226 63 C-222.24178291 61.74726097 -219.91703302 62.42383829 -216 63 C-212.99829362 63.14232111 -210.00062269 63.13097789 -206.99598694 63.12025452 C-206.11204221 63.12110894 -205.22809748 63.12196337 -204.31736654 63.12284368 C-201.36788818 63.12448528 -198.41846722 63.11899878 -195.46899414 63.11352539 C-193.34976198 63.11324321 -191.23052971 63.11340186 -189.11129761 63.1139679 C-183.36601901 63.11425466 -177.62076131 63.10837747 -171.87548757 63.10139394 C-165.86836303 63.09514027 -159.86123801 63.094555 -153.85411072 63.09336853 C-142.48227212 63.09026116 -131.11044314 63.08205576 -119.73860878 63.07201904 C-106.79068924 63.06083947 -93.84276924 63.0553428 -80.89484608 63.05032361 C-54.26322539 63.03987267 -27.63161323 63.02228471 -1 63 C-1.00222061 62.25497726 -1.00444122 61.50995453 -1.00672913 60.74235535 C-1.02676019 53.72369072 -1.04198853 46.70503599 -1.05181217 39.68635082 C-1.05703236 36.07791615 -1.06411436 32.46950508 -1.07543945 28.86108398 C-1.086299 25.37923767 -1.09228336 21.89741408 -1.09487724 18.41555214 C-1.0976261 16.43964005 -1.10543327 14.4637371 -1.11329651 12.48783875 C-1.11337204 11.28682022 -1.11344757 10.0858017 -1.11352539 8.84838867 C-1.115746 7.78915695 -1.11796661 6.72992523 -1.12025452 5.63859558 C-1 3 -1 3 0 0 Z " fill="#EE8100" transform="translate(294,399)"/>
<path d="M0 0 C28.98926056 0.10717537 57.97849478 0.2199253 86.96770763 0.33933926 C89.64554524 0.3503505 92.32338294 0.36134076 95.0012207 0.37231445 C95.66681625 0.37504276 96.33241179 0.37777106 97.01817689 0.38058204 C107.7977224 0.42466619 118.57727831 0.46529671 129.356842 0.50465261 C140.41631349 0.54510727 151.47576521 0.58934253 162.53520852 0.63687855 C168.74768578 0.6634611 174.96015925 0.68831378 181.17265892 0.70907402 C187.01744242 0.72865944 192.86218911 0.75280902 198.7069397 0.78049088 C200.85437158 0.78985119 203.00181154 0.79753014 205.14925575 0.80341911 C208.07713927 0.81169755 211.00493387 0.82597924 213.93278503 0.84178162 C214.7859023 0.84275972 215.63901956 0.84373783 216.51798886 0.84474558 C220.47678374 0.87229198 224.13537303 1.02027701 228 2 C228 2.33 228 2.66 228 3 C199.45379265 3.17732476 170.90753825 3.34299067 142.36118317 3.49477577 C129.10663555 3.56552397 115.8521299 3.64008774 102.59765625 3.72363281 C91.04512475 3.79644059 79.49257854 3.86209048 67.9399581 3.91914403 C61.82290691 3.94960359 55.70592305 3.98364806 49.58894348 4.02626419 C43.83037644 4.06627023 38.07183787 4.09669848 32.31317902 4.11981392 C30.20084391 4.12997524 28.08852221 4.14362162 25.97623444 4.16103554 C23.08880679 4.18431513 20.20159242 4.19497022 17.31408691 4.20254517 C16.48138102 4.2122618 15.64867513 4.22197843 14.79073572 4.2319895 C9.5380318 4.2286409 5.05082072 3.45906153 0 2 C0 1.34 0 0.68 0 0 Z " fill="#FD8303" transform="translate(222,81)"/>
<path d="M0 0 C1.5447829 -0.00230935 3.08956469 -0.00548903 4.63434422 -0.00945449 C8.84427581 -0.01774549 13.05411585 -0.01370341 17.26404762 -0.00748205 C21.81751223 -0.00293531 26.37096168 -0.00995214 30.92442322 -0.01544189 C39.82915271 -0.02431262 48.73384839 -0.02242463 57.63857917 -0.01661661 C64.87505418 -0.01209268 72.11151974 -0.01149038 79.34799576 -0.01366425 C80.89513673 -0.01412394 80.89513673 -0.01412394 82.47353307 -0.01459293 C84.56903401 -0.0152324 86.66453495 -0.01588083 88.76003589 -0.01653811 C108.3849367 -0.02223416 128.00981879 -0.01569401 147.63471653 -0.00493738 C164.471992 0.00400545 181.30923991 0.00243865 198.14651489 -0.0067749 C217.71237298 -0.01747659 237.27821471 -0.0216933 256.84407532 -0.01555037 C258.92986496 -0.01491329 261.0156546 -0.01428455 263.10144424 -0.01366425 C264.12763755 -0.01335569 265.15383085 -0.01304714 266.21112093 -0.01272924 C273.44156178 -0.0110026 280.67199224 -0.01391659 287.90243149 -0.01862335 C296.70955649 -0.02423069 305.51664584 -0.02271847 314.32376675 -0.01206186 C318.81678546 -0.00680443 323.30974471 -0.00474978 327.80276299 -0.01136017 C331.91552554 -0.0173197 336.0281735 -0.01404446 340.14092566 -0.00340506 C341.62853758 -0.00117117 343.11615918 -0.00230711 344.60376488 -0.00715664 C346.62682711 -0.01324589 348.64991648 -0.00579883 350.67297173 0.002285 C351.7963522 0.00260971 352.91973268 0.00293441 354.07715499 0.00326896 C357.72960999 0.2853488 360.87090429 1.03700407 364.32327271 2.25396729 C364.65327271 2.91396729 364.98327271 3.57396729 365.32327271 4.25396729 C364.07559115 4.04194151 364.07559115 4.04194151 362.80270392 3.82563239 C353.77895775 2.40028111 345.04345959 1.96681944 335.90834045 1.99327087 C334.40409344 1.99024269 332.89984796 1.98634989 331.39560515 1.98167831 C327.3021341 1.97147595 323.20875139 1.97356007 319.11527336 1.9778589 C314.68509045 1.98034027 310.25492805 1.9712947 305.82475281 1.96382141 C297.16212686 1.95111268 288.49953196 1.94927582 279.83689826 1.95162167 C272.79357587 1.95340881 265.75026287 1.95164674 258.7069416 1.94739723 C257.70236037 1.94680204 256.69777913 1.94620685 255.66275604 1.94559363 C253.62162403 1.94438182 251.58049201 1.94316768 249.53935999 1.94195125 C230.42598085 1.93109106 211.31261939 1.93323136 192.19923926 1.9393361 C174.7298684 1.94450737 157.26055326 1.93324155 139.79119342 1.91423788 C121.82913505 1.89484877 103.86710303 1.88660514 85.90503412 1.89036113 C75.83039264 1.8922711 65.75579862 1.88980525 55.6811657 1.87564659 C47.10735254 1.86371837 38.53361608 1.8623443 29.95980185 1.87443676 C25.58954412 1.88031448 21.2194266 1.88145546 16.84917831 1.86943436 C12.84156793 1.85853914 8.8342142 1.86172178 4.82661564 1.87569604 C3.38401301 1.87833292 1.94139002 1.87600845 0.49880742 1.86796018 C-8.65516257 1.82047106 -16.84969659 2.82947858 -25.67672729 5.25396729 C-27.00930657 5.59030249 -28.34231687 5.92497228 -29.67672729 6.25396729 C-29.34672729 4.93396729 -29.01672729 3.61396729 -28.67672729 2.25396729 C-19.07859504 0.45973429 -9.73154524 -0.03203774 0 0 Z " fill="#FFCA5E" transform="translate(84.67672729492188,168.74603271484375)"/>
<path d="M0 0 C0.81082031 -0.00322266 1.62164062 -0.00644531 2.45703125 -0.00976562 C8.47364631 0.04493088 8.47364631 0.04493088 11.875 2.3125 C12.2734375 4.58984375 12.2734375 4.58984375 12.25 7.25 C12.25773437 8.12527344 12.26546875 9.00054687 12.2734375 9.90234375 C11.7934636 12.80571526 11.15536362 13.51310321 8.875 15.3125 C5.75927812 15.9353433 2.6085793 15.77605069 -0.5625 15.75 C-1.85124023 15.7799707 -1.85124023 15.7799707 -3.16601562 15.81054688 C-9.41235716 15.80570099 -9.41235716 15.80570099 -12.6875 13.5390625 C-15.10157115 9.79987621 -14.7529341 7.70803871 -14.125 3.3125 C-9.85912399 -0.43604314 -5.37021197 -0.10774904 0 0 Z " fill="#FFFAF4" transform="translate(109.125,315.6875)"/>
<path d="M0 0 C0.82951172 -0.00386719 1.65902344 -0.00773437 2.51367188 -0.01171875 C3.37669922 -0.00011719 4.23972656 0.01148438 5.12890625 0.0234375 C5.98806641 0.01183594 6.84722656 0.00023437 7.73242188 -0.01171875 C11.35474155 0.00514232 13.98451703 0.04660679 17.2578125 1.67578125 C19.24273296 4.0609309 19.17606118 6.34042603 19.22265625 9.36328125 C18.4088824 12.48075312 17.33807888 13.54413291 14.69140625 15.3984375 C11.67793666 15.95837273 8.74750826 15.91160776 5.69140625 15.8359375 C4.48097656 15.84657227 4.48097656 15.84657227 3.24609375 15.85742188 C-0.22352943 15.82020644 -2.70217205 15.69650918 -5.84375 14.15234375 C-7.69474075 11.93609082 -7.8176866 10.76215155 -7.74609375 7.8984375 C-7.74480469 7.125 -7.74351563 6.3515625 -7.7421875 5.5546875 C-6.85597027 1.14755318 -4.22843838 0.01895554 0 0 Z " fill="#FFFBF5" transform="translate(122.30859375,269.6015625)"/>
<path d="M0 0 C0.75474609 -0.01160156 1.50949219 -0.02320313 2.28710938 -0.03515625 C5.51846062 -0.01807422 8.02016503 0.16731218 10.93359375 1.6171875 C12.8230512 3.82564426 12.97594288 4.99178435 12.9375 7.875 C12.9478125 8.6484375 12.958125 9.421875 12.96875 10.21875 C12.4375 12.375 12.4375 12.375 11.00390625 14.12890625 C7.03704945 16.05497523 3.22623374 15.84840665 -1.125 15.8125 C-2.41954102 15.8424707 -2.41954102 15.8424707 -3.74023438 15.87304688 C-9.9900076 15.8681908 -9.9900076 15.8681908 -12.62109375 13.6015625 C-14.22299317 9.81283773 -14.08576566 7.49571708 -13.5625 3.375 C-9.39432356 -0.22219336 -5.22514637 -0.08073188 0 0 Z " fill="#FFFBF6" transform="translate(108.5625,284.625)"/>
<path d="M0 0 C3.08315385 -0.08733513 6.16598827 -0.14050127 9.25 -0.1875 C10.12269531 -0.21263672 10.99539062 -0.23777344 11.89453125 -0.26367188 C18.27267522 -0.33670406 18.27267522 -0.33670406 21.58203125 1.1953125 C23.46027611 3.58580596 23.504152 5.04538631 23.4375 8.0625 C23.43621094 8.94035156 23.43492188 9.81820313 23.43359375 10.72265625 C23.21896484 11.84994141 23.21896484 11.84994141 23 13 C19.8353486 15.1097676 19.02606227 15.25552605 15.40234375 15.265625 C14.07686523 15.26949219 14.07686523 15.26949219 12.72460938 15.2734375 C11.80486328 15.26570313 10.88511719 15.25796875 9.9375 15.25 C9.01388672 15.25773437 8.09027344 15.26546875 7.13867188 15.2734375 C5.81512695 15.26957031 5.81512695 15.26957031 4.46484375 15.265625 C3.656521 15.26336914 2.84819824 15.26111328 2.01538086 15.25878906 C0 15 0 15 -2 13 C-2.265625 10.9765625 -2.265625 10.9765625 -2.25 8.625 C-2.25515625 7.85414063 -2.2603125 7.08328125 -2.265625 6.2890625 C-1.97572082 3.79077063 -1.16722305 2.2040463 0 0 Z " fill="#FFFBF6" transform="translate(98,254)"/>
<path d="M0 0 C1.65498253 -0.00021904 1.65498253 -0.00021904 3.34339905 -0.0004425 C6.96853645 0.00025083 10.59362164 0.00801606 14.21875 0.01586914 C16.74080375 0.01773538 19.26285787 0.01915831 21.78491211 0.02015686 C27.73099496 0.02357711 33.67706122 0.03144828 39.62313557 0.04150635 C46.39707111 0.05271414 53.17100758 0.05818966 59.9449501 0.06320179 C73.86956031 0.07363226 87.79415414 0.09120252 101.71875 0.11352539 C101.71875 0.77352539 101.71875 1.43352539 101.71875 2.11352539 C99.29199258 3.3269041 97.76828044 3.23407652 95.05665588 3.22705078 C93.58235107 3.22694504 93.58235107 3.22694504 92.07826233 3.22683716 C90.45506325 3.21908768 90.45506325 3.21908768 88.79907227 3.21118164 C87.66243134 3.20972137 86.52579041 3.20826111 85.35470581 3.20675659 C82.88015372 3.20294332 80.40560438 3.19681918 77.9310627 3.18869019 C74.0192981 3.17597384 70.10756723 3.16942307 66.19578552 3.16455078 C57.18452834 3.15249475 48.17330067 3.13044747 39.1620636 3.10832214 C30.25164422 3.08655166 21.34123898 3.06867967 12.43079948 3.05758667 C8.569125 3.0510826 4.70749885 3.0385735 0.84584045 3.02587891 C-1.51349851 3.02224743 -3.87283792 3.01889557 -6.23217773 3.01586914 C-7.31228622 3.01070282 -8.39239471 3.0055365 -9.50523376 3.00021362 C-10.98376831 3.00010788 -10.98376831 3.00010788 -12.49217224 3 C-13.34960746 2.99777939 -14.20704268 2.99555878 -15.09046078 2.99327087 C-17.46058842 3.02677343 -17.46058842 3.02677343 -20.28125 4.11352539 C-19.95125 3.12352539 -19.62125 2.13352539 -19.28125 1.11352539 C-12.81734516 0.14655593 -6.52979203 -0.02283983 0 0 Z " fill="#FA8202" transform="translate(79.28125,44.886474609375)"/>
<path d="M0 0 C1.18335937 0.0009668 1.18335937 0.0009668 2.390625 0.00195312 C3.21046875 0.01806641 4.0303125 0.03417969 4.875 0.05078125 C6.10476562 0.04594727 6.10476562 0.04594727 7.359375 0.04101562 C13.4740295 0.09596759 13.4740295 0.09596759 16.875 2.36328125 C17.2734375 4.67578125 17.2734375 4.67578125 17.25 7.36328125 C17.25773437 8.25015625 17.26546875 9.13703125 17.2734375 10.05078125 C17.14195313 10.81390625 17.01046875 11.57703125 16.875 12.36328125 C13.69048785 14.48628935 12.89026637 14.61212369 9.2421875 14.59375 C8.35402344 14.59181641 7.46585938 14.58988281 6.55078125 14.58789062 C5.62652344 14.57564453 4.70226562 14.56339844 3.75 14.55078125 C2.81800781 14.55013672 1.88601562 14.54949219 0.92578125 14.54882812 C-5.98471841 14.50356284 -5.98471841 14.50356284 -7.125 13.36328125 C-7.328125 11.18359375 -7.328125 11.18359375 -7.375 8.48828125 C-7.40078125 7.60398438 -7.4265625 6.7196875 -7.453125 5.80859375 C-6.84721593 1.29312856 -4.32582835 -0.01792738 0 0 Z " fill="#FFFDFB" transform="translate(104.125,223.63671875)"/>
<path d="M0 0 C11.0438247 -0.60680356 11.0438247 -0.60680356 15.25 2.0625 C17.4273397 5.71732021 17.53361358 7.80732185 17 12 C15.98263229 14.76142665 15.63829259 15.68085371 13 17 C8.66396021 17.1393329 4.33919329 17.04254111 0 17 C0 11.39 0 5.78 0 0 Z " fill="#D71C06" transform="translate(410,408)"/>
<path d="M0 0 C3.367411 2.89971503 4.02149536 5.8647865 5.15625 10.0390625 C5.4346875 10.68617188 5.713125 11.33328125 6 12 C6.99 12.33 7.98 12.66 9 13 C9.87454849 14.41273217 10.74829878 15.82596731 11.6171875 17.2421875 C13.97499668 20.23940257 17.09035419 22.27760848 20.171875 24.484375 C20.77515625 24.98453125 21.3784375 25.4846875 22 26 C22 26.66 22 27.32 22 28 C22.66 28.33 23.32 28.66 24 29 C23.67 29.66 23.34 30.32 23 31 C17.90301908 29.69612116 15.4858669 27.90085106 12 24 C11.35675781 23.34773438 10.71351562 22.69546875 10.05078125 22.0234375 C4.65499012 16.37830297 0.176865 10.27647244 -0.09375 2.203125 C-0.04734375 1.11257813 -0.04734375 1.11257813 0 0 Z " fill="#9A5400" transform="translate(36,436)"/>
<path d="M0 0 C-0.99 0.99 -1.98 1.98 -3 3 C-1.99163938 4.23267348 -1.99163938 4.23267348 0.06640625 4.09765625 C0.89011719 4.08605469 1.71382812 4.07445312 2.5625 4.0625 C3.38878906 4.05347656 4.21507813 4.04445313 5.06640625 4.03515625 C6.02353516 4.01775391 6.02353516 4.01775391 7 4 C7 4.33 7 4.66 7 5 C5.741875 5.103125 4.48375 5.20625 3.1875 5.3125 C-0.28573354 5.73368298 -1.7228072 6.26736864 -4 9 C-5.8125 9.5625 -5.8125 9.5625 -8 10 C-13.25963018 11.40256805 -16.71883811 13.74631697 -21 17 C-20.67723936 11.67444941 -17.79173174 8.46064498 -14 5 C-9.36962998 1.75304458 -5.7561207 -0.33383477 0 0 Z " fill="#EA7D09" transform="translate(61,41)"/>
<path d="M0 0 C0.33 0.99 0.66 1.98 1 3 C1.99 3 2.98 3 4 3 C4 3.66 4 4.32 4 5 C4.66 5 5.32 5 6 5 C6.5775 5.763125 7.155 6.52625 7.75 7.3125 C10.27186051 10.32472228 12.48044929 11.35255073 16 13 C17.875 14.5625 17.875 14.5625 19 16 C19 16.66 19 17.32 19 18 C20.98 18.66 22.96 19.32 25 20 C20.71498597 21.454016 18.40966484 20.3226763 14.45703125 18.44140625 C9.83849549 15.73196317 4.00319794 12.00959383 2.25 6.75 C2.1675 6.1725 2.085 5.595 2 5 C1.34 5 0.68 5 0 5 C0 3.35 0 1.7 0 0 Z " fill="#C86E00" transform="translate(43,444)"/>
<path d="M0 0 C2.86688248 0.09096556 5.70300515 0.23767988 8.5625 0.4375 C9.36880859 0.48970703 10.17511719 0.54191406 11.00585938 0.59570312 C13.00421738 0.72577376 15.00215386 0.86229056 17 1 C17.495 1.99 17.495 1.99 18 3 C17.16021606 3.029729 17.16021606 3.029729 16.3034668 3.06005859 C13.76434146 3.15537783 11.22603112 3.26502753 8.6875 3.375 C7.36588867 3.42140625 7.36588867 3.42140625 6.01757812 3.46875 C4.74624023 3.52675781 4.74624023 3.52675781 3.44921875 3.5859375 C2.27879028 3.63306885 2.27879028 3.63306885 1.0847168 3.68115234 C-1.30155768 3.89587889 -1.30155768 3.89587889 -4 6 C-4 5.34 -4 4.68 -4 4 C-8.95 4 -13.9 4 -19 4 C-19.33 3.34 -19.66 2.68 -20 2 C-19.42967041 1.97494385 -18.85934082 1.9498877 -18.27172852 1.92407227 C-15.70173843 1.80843451 -13.13214473 1.68556376 -10.5625 1.5625 C-9.66466797 1.52318359 -8.76683594 1.48386719 -7.84179688 1.44335938 C-6.98779297 1.40146484 -6.13378906 1.35957031 -5.25390625 1.31640625 C-4.46314697 1.27974854 -3.6723877 1.24309082 -2.85766602 1.20532227 C-0.98598559 1.19436743 -0.98598559 1.19436743 0 0 Z " fill="#FFC45E" transform="translate(119,267)"/>
<path d="M0 0 C4.17348578 0.52168572 7.32499351 2.09605923 10.99609375 4.01171875 C13.58352999 5.28778379 16.24040164 6.17212049 19 7 C17.68 7.33 16.36 7.66 15 8 C15.33 8.66 15.66 9.32 16 10 C12.37 9.34 8.74 8.68 5 8 C5 7.34 5 6.68 5 6 C4.360625 5.7525 3.72125 5.505 3.0625 5.25 C1 4 1 4 0.25 1.875 C0.1675 1.25625 0.085 0.6375 0 0 Z " fill="#DA7B15" transform="translate(210,70)"/>
<path d="M0 0 C0.65355469 0.48082031 1.30710937 0.96164062 1.98046875 1.45703125 C5.8412652 3.42988325 9.03939635 3.55384618 13.3125 3.6875 C14.05306641 3.72166016 14.79363281 3.75582031 15.55664062 3.79101562 C17.37058164 3.87293554 19.18526353 3.93815822 21 4 C21 4.33 21 4.66 21 5 C18.18780295 5.19384179 15.37545804 5.38036603 12.5625 5.5625 C11.35883789 5.64661133 11.35883789 5.64661133 10.13085938 5.73242188 C8.08937889 5.8616295 6.04453631 5.9351273 4 6 C3.67 5.67 3.34 5.34 3 5 C1.5112814 4.91330568 0.018555 4.89296506 -1.47265625 4.90234375 C-2.82133789 4.90717773 -2.82133789 4.90717773 -4.19726562 4.91210938 C-5.14279297 4.92048828 -6.08832031 4.92886719 -7.0625 4.9375 C-8.01189453 4.94201172 -8.96128906 4.94652344 -9.93945312 4.95117188 C-12.29303065 4.9629989 -14.64648477 4.97947975 -17 5 C-14.72208559 2.38416981 -14.31137002 2.02718597 -10.64453125 1.70703125 C-8.74767578 1.75923828 -8.74767578 1.75923828 -6.8125 1.8125 C-4.90404297 1.85310547 -4.90404297 1.85310547 -2.95703125 1.89453125 C-1.49330078 1.94673828 -1.49330078 1.94673828 0 2 C0 1.34 0 0.68 0 0 Z " fill="#FFBA4F" transform="translate(115,312)"/>
<path d="M0 0 C1.40664926 0.14492123 2.8181133 0.24628931 4.23046875 0.31640625 C5.43413086 0.37924805 5.43413086 0.37924805 6.66210938 0.44335938 C7.49548828 0.48267578 8.32886719 0.52199219 9.1875 0.5625 C10.03248047 0.60568359 10.87746094 0.64886719 11.74804688 0.69335938 C13.83184433 0.79931518 15.91590103 0.9001502 18 1 C18 1.33 18 1.66 18 2 C15.56257869 2.16789126 13.12507454 2.33436133 10.6875 2.5 C9.99720703 2.54769531 9.30691406 2.59539062 8.59570312 2.64453125 C0.39793883 3.19896941 0.39793883 3.19896941 -2 2 C-4.8213072 1.92765879 -7.61724998 1.90722481 -10.4375 1.9375 C-11.60249023 1.94426758 -11.60249023 1.94426758 -12.79101562 1.95117188 C-14.86070346 1.96365061 -16.93035687 1.98153936 -19 2 C-19.99 2 -20.98 2 -22 2 C-19.01133238 -0.98866762 -15.58138078 -0.50497445 -11.5625 -0.6875 C-10.39750977 -0.75807617 -10.39750977 -0.75807617 -9.20898438 -0.83007812 C-5.8346076 -1.00737096 -3.23298886 -1.07766295 0 0 Z " fill="#FFC769" transform="translate(119,284)"/>
<path d="M0 0 C0.33 0.99 0.66 1.98 1 3 C1.99 3 2.98 3 4 3 C4 3.66 4 4.32 4 5 C4.66 5 5.32 5 6 5 C6.5775 5.763125 7.155 6.52625 7.75 7.3125 C10.26372259 10.31500199 12.50956757 11.33066275 16 13 C16.99 14.485 16.99 14.485 18 16 C15.61435923 15.42415568 13.33317216 14.77772405 11 14 C11 13.34 11 12.68 11 12 C10.4225 11.938125 9.845 11.87625 9.25 11.8125 C6.12812615 10.68515666 5.00227698 8.5835832 3 6 C2.01 5.67 1.02 5.34 0 5 C0 3.35 0 1.7 0 0 Z " fill="#DC7900" transform="translate(43,444)"/>
<path d="M0 0 C3.367411 2.89971503 4.02149536 5.8647865 5.15625 10.0390625 C5.4346875 10.68617188 5.713125 11.33328125 6 12 C6.99 12.33 7.98 12.66 9 13 C9.33 13.99 9.66 14.98 10 16 C9.01 16 8.02 16 7 16 C6.67 16.66 6.34 17.32 6 18 C2.49876983 12.16461638 -0.41299865 7.02097701 0 0 Z " fill="#8E4F00" transform="translate(36,436)"/>
<path d="M0 0 C0.33 0.66 0.66 1.32 1 2 C6.61 2 12.22 2 18 2 C18 2.33 18 2.66 18 3 C5.21703075 3.86732046 -7.22391633 4.00295343 -20 3 C-20 2.67 -20 2.34 -20 2 C-18.72382812 1.93941406 -17.44765625 1.87882812 -16.1328125 1.81640625 C-14.46352984 1.73200432 -12.79425963 1.64735614 -11.125 1.5625 C-10.28324219 1.52318359 -9.44148438 1.48386719 -8.57421875 1.44335938 C-7.76855469 1.40146484 -6.96289062 1.35957031 -6.1328125 1.31640625 C-5.01737061 1.26141968 -5.01737061 1.26141968 -3.87939453 1.20532227 C-1.91135688 1.10044135 -1.91135688 1.10044135 0 0 Z " fill="#FFD187" transform="translate(119,298)"/>
<path d="M0 0 C0 0.33 0 0.66 0 1 C-13.11022218 1.96398692 -25.88650781 1.8981844 -39 1 C-39 0.67 -39 0.34 -39 0 C-25.88650781 -0.8981844 -13.11022218 -0.96398692 0 0 Z " fill="#FFD68C" transform="translate(137,238)"/>
<path d="M0 0 C0.33 0 0.66 0 1 0 C1.27646774 3.06218072 1.52190671 6.1216578 1.75 9.1875 C1.83121094 10.05181641 1.91242187 10.91613281 1.99609375 11.80664062 C2.28952424 16.06138267 2.42504327 18.28915177 0.1875 22.03125 C-2.12543043 24.11288739 -4.03825728 25.09502306 -7 26 C-5.43653459 22.22162525 -5.43653459 22.22162525 -2.96875 20.96875 C0.28275318 17.71724682 -0.32110792 13.73088778 -0.25 9.3125 C-0.22035156 8.41982422 -0.19070312 7.52714844 -0.16015625 6.60742188 C-0.08948573 4.40485723 -0.03678061 2.20334869 0 0 Z " fill="#FAC066" transform="translate(53,155)"/>
<path d="M0 0 C2.475 0.495 2.475 0.495 5 1 C5.33 2.65 5.66 4.3 6 6 C6.66 6 7.32 6 8 6 C8 6.66 8 7.32 8 8 C7.01 8 6.02 8 5 8 C5 7.34 5 6.68 5 6 C4.360625 5.7525 3.72125 5.505 3.0625 5.25 C1 4 1 4 0.25 1.875 C0.1675 1.25625 0.085 0.6375 0 0 Z " fill="#F68913" transform="translate(210,70)"/>
<path d="M0 0 C2.97 0 5.94 0 9 0 C9.33 0.66 9.66 1.32 10 2 C12.52733235 2.65555119 12.52733235 2.65555119 15 3 C15 3.33 15 3.66 15 4 C9.1977825 4.36263859 5.36000789 3.25684543 0 1 C0 0.67 0 0.34 0 0 Z " fill="#7E4500" transform="translate(59,467)"/>
<path d="M0 0 C-0.495 0.474375 -0.99 0.94875 -1.5 1.4375 C-3.11542197 2.75923698 -3.11542197 2.75923698 -3 4 C-7.455 4.495 -7.455 4.495 -12 5 C-7.98293024 0.98293024 -5.6913658 -0.31618699 0 0 Z " fill="#D37815" transform="translate(61,41)"/>
<path d="M0 0 C0 0.66 0 1.32 0 2 C-1.45736087 2.19491452 -2.91594593 2.38069358 -4.375 2.5625 C-5.18710937 2.66691406 -5.99921875 2.77132812 -6.8359375 2.87890625 C-9 3 -9 3 -11 2 C-3.57142857 -1.57142857 -3.57142857 -1.57142857 0 0 Z " fill="#FFD57E" transform="translate(69,168)"/>
<path d="M0 0 C5.94 0 11.88 0 18 0 C18 0.33 18 0.66 18 1 C15.56257869 1.16789126 13.12507454 1.33436133 10.6875 1.5 C9.99720703 1.54769531 9.30691406 1.59539062 8.59570312 1.64453125 C5.72337641 1.83879489 2.87986212 2 0 2 C0 1.34 0 0.68 0 0 Z " fill="#FFB741" transform="translate(119,285)"/>
<path d="M0 0 C3.465 1.485 3.465 1.485 7 3 C7 3.33 7 3.66 7 4 C5.54207116 4.05399736 4.08357288 4.09279177 2.625 4.125 C1.81289063 4.14820312 1.00078125 4.17140625 0.1640625 4.1953125 C-2 4 -2 4 -4 2 C-2.68 2 -1.36 2 0 2 C0 1.34 0 0.68 0 0 Z " fill="#E28017" transform="translate(454,78)"/>
<path d="M0 0 C6.64615385 2.46153846 6.64615385 2.46153846 8.4375 5.1875 C8.623125 5.785625 8.80875 6.38375 9 7 C7.35 7 5.7 7 4 7 C3.896875 6.360625 3.79375 5.72125 3.6875 5.0625 C3.460625 4.381875 3.23375 3.70125 3 3 C2.01 2.67 1.02 2.34 0 2 C0 1.34 0 0.68 0 0 Z " fill="#DC7B14" transform="translate(186,41)"/>
<path d="M0 0 C0.66 0.66 1.32 1.32 2 2 C0.02 3.32 -1.96 4.64 -4 6 C-4.66 5.67 -5.32 5.34 -6 5 C-4.02 3.35 -2.04 1.7 0 0 Z " fill="#FD901A" transform="translate(51,45)"/>
<path d="M0 0 C1.32 0 2.64 0 4 0 C3.67 0.99 3.34 1.98 3 3 C2.01 2.67 1.02 2.34 0 2 C0 1.34 0 0.68 0 0 Z M-2 2 C-1.34 2.33 -0.68 2.66 0 3 C-1.98 3.99 -1.98 3.99 -4 5 C-3.34 4.01 -2.68 3.02 -2 2 Z " fill="#FB8202" transform="translate(54,47)"/>
</svg>